<?xml version="1.0" encoding="UTF-8" standalone="no"?>
<svg width="408px" height="500px" viewBox="0 0 408 500" version="1.1" xmlns="http://www.w3.org/2000/svg" xmlns:xlink="http://www.w3.org/1999/xlink" xmlns:sketch="http://www.bohemiancoding.com/sketch/ns">
    <!-- Generator: Sketch 3.3.2 (12043) - http://www.bohemiancoding.com/sketch -->
    <title>apple</title>
    <desc>Created with Sketch.</desc>
    <defs></defs>
    <g id="Page-1" stroke="none" stroke-width="1" fill="none" fill-rule="evenodd" sketch:type="MSPage">
        <path d="M276.595097,78.4803106 C295.729872,57.6816417 306.267864,29.1181364 304.603971,0 C278.536306,0 248.308907,15.2523572 229.174132,37.7149196 C214.19909,56.2950638 198.114786,85.4132002 203.938414,114.531337 C230.838025,117.859124 259.956162,100.942873 276.595097,78.4803106 L276.595097,78.4803106 Z M302.108131,120.909595 C261.620055,120.909595 225.846345,143.372158 206.711569,143.372158 C186.744847,143.372158 157.626711,119.800333 124.903472,120.909595 C82.1968717,121.741542 43.0953742,146.97726 21.187443,184.137549 C5.65777019,210.759845 -0.443172684,242.096506 0.111458487,273.987798 C0.943405242,334.16528 24.51523,396.838602 52.2467885,436.772047 C73.6000885,467.276761 97.7265445,500 131.836361,500 C162.618391,500 173.98833,479.478647 214.19909,479.478647 C251.636694,479.478647 263.283949,500 295.729872,500 C329.839689,500 352.302252,468.940654 372.546289,438.158625 C398.059323,402.384914 406.656106,368.275097 407.765369,366.888519 C406.656106,366.888519 342.318891,340.820854 339.82305,266.500277 C339.82305,201.331115 392.790327,171.935663 395.008852,170.549085 C366.168031,126.178591 319.579013,120.909595 302.108131,120.909595 L302.108131,120.909595 Z" id="apple" fill="#000000" sketch:type="MSShapeGroup"></path>
    </g>
</svg>