<?xml version="1.0" encoding="UTF-8" standalone="no"?>
<svg width="34px" height="34px" viewBox="0 0 34 34" version="1.1" xmlns="http://www.w3.org/2000/svg" xmlns:xlink="http://www.w3.org/1999/xlink" xmlns:sketch="http://www.bohemiancoding.com/sketch/ns">
    <!-- Generator: Sketch 3.4 (15575) - http://www.bohemiancoding.com/sketch -->
    <title>Artboard 16</title>
    <desc>Created with Sketch.</desc>
    <defs></defs>
    <g id="icon" stroke="none" stroke-width="1" fill="none" fill-rule="evenodd" sketch:type="MSPage">
        <g id="Artboard-16" sketch:type="MSArtboardGroup" fill="#000000">
            <path d="M33,17.0005413 C33,20.8566934 31.637031,24.3934842 29.3646943,27.1562299 C29.3636118,27.1583951 29.3614466,27.1605602 29.3592814,27.163808 C29.3376298,27.1887073 29.3159782,27.2146893 29.2943266,27.2395886 C29.2434453,27.3034609 29.1903989,27.365168 29.1362698,27.4279576 C29.1081227,27.4604351 29.0788931,27.4939951 29.0496634,27.5275551 C28.9998647,27.5838493 28.9489834,27.641226 28.8981021,27.6975202 C28.8721202,27.7278325 28.8439731,27.7581447 28.8179911,27.7873744 C28.7422105,27.8696505 28.6653473,27.9519267 28.588484,28.0320376 C28.5744105,28.0471937 28.5614195,28.0612673 28.547346,28.0753408 C28.480226,28.1457086 28.4141886,28.2139112 28.345986,28.2821137 C28.3189215,28.3080957 28.2929395,28.3362428 28.2647924,28.3622247 C28.2074157,28.4206841 28.1489563,28.4780608 28.0894144,28.534355 C28.0634325,28.5592544 28.0363679,28.5841537 28.0114686,28.6101357 C27.930275,28.6869989 27.8479989,28.7627795 27.7646402,28.8385602 C27.762475,28.8407253 27.7592273,28.8428905 27.7581447,28.8450557 C24.9163706,31.4270104 21.1424947,33 17.0005413,33 C12.9192124,33 9.19513515,31.4713962 6.36959978,28.9565615 C6.3685172,28.9565615 6.3685172,28.957644 6.3685172,28.957644 C6.34470043,28.9359924 6.32088366,28.9143408 6.29706688,28.8926892 C6.26458947,28.8634595 6.23211205,28.8353124 6.19963463,28.8050002 C6.1400927,28.748706 6.07946818,28.6934944 6.01992625,28.6372002 C5.9950269,28.6133834 5.97121012,28.5917318 5.94739335,28.567915 C5.86728238,28.4921344 5.78933658,28.4163537 5.71139078,28.3394905 C5.6821611,28.3091783 5.65293143,28.278866 5.62370175,28.2496363 C5.57173788,28.1976725 5.52085659,28.1457086 5.4699753,28.0926621 C5.4364153,28.0580196 5.40393789,28.0244596 5.37146047,27.9887344 C5.32166176,27.9367705 5.27186305,27.8837241 5.22314693,27.8306776 C5.19391725,27.7992828 5.16468757,27.7668054 5.13654048,27.7354105 C5.06400758,27.6563822 4.99363984,27.5762712 4.9232721,27.4950776 C4.89404242,27.4615176 4.86589533,27.4279576 4.83666565,27.3943976 C4.80527081,27.3565073 4.77387598,27.3207822 4.74248114,27.2839744 L4.74248114,27.2828918 C2.40735478,24.5028249 1,20.9162353 1,17.0005413 C1,13.0848473 2.40735478,9.49825772 4.74248114,6.71710816 C4.77387598,6.68030042 4.80527081,6.64457526 4.83666565,6.60668494 C4.86589533,6.57312494 4.89404242,6.53956494 4.9232721,6.50600494 C4.99363984,6.42481139 5.06400758,6.34470043 5.13654048,6.26567205 C5.16468757,6.23427721 5.19391725,6.20288237 5.22314693,6.17148753 C5.27186305,6.1173585 5.32166176,6.06431205 5.37146047,6.0112656 C5.40393789,5.97662303 5.4364153,5.94306303 5.4699753,5.90842045 C5.52085659,5.85645658 5.57173788,5.80341013 5.62370175,5.75144626 C5.65293143,5.72221658 5.6821611,5.69190433 5.71139078,5.66267465 C5.78933658,5.58472885 5.86728238,5.50786562 5.94739335,5.43208498 C5.97121012,5.40935079 5.9950269,5.3866166 6.01992625,5.3638824 C6.07946818,5.30758821 6.1400927,5.25129402 6.19963463,5.19608241 C6.23211205,5.16685274 6.26458947,5.13762306 6.29706688,5.10839338 C6.32088366,5.08674177 6.34470043,5.06509016 6.3685172,5.04343855 C6.3685172,5.04452113 6.3685172,5.04452113 6.36959978,5.04452113 C9.19513515,2.52860381 12.9192124,1 17.0005413,1 C21.1424947,1 24.9163706,2.57407219 27.7581447,5.15602693 C27.7592273,5.15819209 27.762475,5.16035725 27.7646402,5.16252241 C27.8479989,5.23830305 27.930275,5.31516628 28.0114686,5.3920295 C28.0363679,5.41692885 28.0634325,5.44182821 28.0894144,5.46672756 C28.1489563,5.52302175 28.2074157,5.58039852 28.2647924,5.63885788 C28.2929395,5.66483981 28.3189215,5.69190433 28.345986,5.71896884 C28.4141886,5.78717142 28.480226,5.85645658 28.547346,5.92574174 C28.5614195,5.93981528 28.5744105,5.95388883 28.588484,5.96796238 C28.6653473,6.04915593 28.7422105,6.13143205 28.8179911,6.21370818 C28.8439731,6.24293785 28.8721202,6.27325011 28.8981021,6.30356237 C28.9489834,6.35985656 28.9998647,6.41723333 29.0496634,6.47352752 C29.0788931,6.50708752 29.1081227,6.53956494 29.1362698,6.57312494 C29.1903989,6.63591461 29.2434453,6.69762171 29.2943266,6.76149396 C29.3159782,6.78639332 29.3376298,6.81237525 29.3592814,6.83835718 C29.3614466,6.84052235 29.3636118,6.84268751 29.3646943,6.84485267 C31.637031,9.60759836 33,13.1443892 33,17.0005413 L33,17.0005413 Z M27.7581447,25.4360093 C29.3289692,23.4343178 30.3530904,20.9855205 30.6074969,18.3115464 L24.90771,18.3115464 C25.1621164,20.9855205 26.1873203,23.4343178 27.7581447,25.4360093 L27.7581447,25.4360093 Z M26.1505125,27.1562299 C24.1390778,24.7095978 22.8399811,21.6556379 22.5682533,18.3115464 L18.144829,18.3115464 L18.144829,30.622653 C21.2128624,30.3682466 23.9929294,29.1016273 26.1505125,27.1562299 L26.1505125,27.1562299 Z M15.814033,30.6194053 L15.814033,18.3115464 L11.6829054,18.3115464 C11.4068473,21.7140972 10.06553,24.8156907 7.99347069,27.2828918 C10.1207416,29.1481782 12.8304408,30.3628337 15.814033,30.6194053 L15.814033,30.6194053 Z M6.36743462,25.5908184 C8.00862681,23.5620623 9.08146419,21.0558882 9.3434487,18.3115464 L3.39358571,18.3115464 C3.65448763,21.0548056 4.72732501,23.5620623 6.36743462,25.5908184 L6.36743462,25.5908184 Z M6.36743462,8.40918164 C4.66886566,10.509388 3.57978957,13.1227376 3.36868636,15.9807504 L9.36834805,15.9807504 C9.15724483,13.1227376 8.06708617,10.509388 6.36743462,8.40918164 L6.36743462,8.40918164 Z M7.99347069,6.71819074 C10.1250719,9.25575967 11.482628,12.4645286 11.7034744,15.9807504 L15.814033,15.9807504 L15.814033,3.38167732 C12.8304408,3.63824893 10.1207416,4.85398694 7.99347069,6.71819074 L7.99347069,6.71819074 Z M18.144829,3.37842958 L18.144829,15.9807504 L22.5466017,15.9807504 C22.7642004,12.5229879 24.0806184,9.36293515 26.1505125,6.84593525 C23.9929294,4.90053791 21.2128624,3.63283602 18.144829,3.37842958 L18.144829,3.37842958 Z M27.7581447,8.56507324 C26.1310261,10.6382151 25.088501,13.1931053 24.8828106,15.9807504 L30.6323962,15.9807504 C30.4267059,13.1931053 29.3852634,10.6382151 27.7581447,8.56507324 L27.7581447,8.56507324 Z" id="Imported-Layers" sketch:type="MSShapeGroup"></path>
        </g>
    </g>
</svg>