<svg width="192" height="15" viewBox="0 0 192 15" xmlns="http://www.w3.org/2000/svg"><title>app-store</title><path d="M.494 1.43V12h3.48c3.23 0 5.016-2 5.016-5.288 0-3.28-1.794-5.28-5.017-5.28H.493zm1.003.91h2.417c2.578 0 4.05 1.647 4.05 4.38s-1.464 4.37-4.05 4.37H1.497V2.34zm12.84 8.92c-1.627 0-2.594-1.208-2.594-3.208s.967-3.208 2.593-3.208 2.593 1.208 2.593 3.208-.97 3.208-2.595 3.208zm0 .872c2.204 0 3.588-1.56 3.588-4.08S16.54 3.98 14.335 3.98s-3.58 1.553-3.58 4.072c0 2.52 1.376 4.08 3.58 4.08zm15.13-8.02H28.5l-1.763 6.694h-.088L24.7 4.112h-.96l-1.947 6.694h-.088l-1.75-6.694h-.974L21.217 12h1.01l1.942-6.548h.095L26.203 12h1.02l2.247-7.888zM31.197 12h.96V7.312c0-1.487.967-2.468 2.446-2.468 1.37 0 2.058.77 2.058 2.27V12h.96V6.873c0-1.838-1.01-2.893-2.77-2.893-1.25 0-2.226.58-2.643 1.553h-.095v-1.42h-.915V12zm8.907 0h.96V.97h-.96V12zm6.694-.74c-1.626 0-2.593-1.208-2.593-3.208s.967-3.208 2.593-3.208 2.593 1.208 2.593 3.208-.966 3.208-2.592 3.208zm0 .872c2.205 0 3.59-1.56 3.59-4.08S49 3.98 46.796 3.98s-3.582 1.553-3.582 4.072c0 2.52 1.377 4.08 3.582 4.08zm8.02-.85c-1.062 0-1.83-.57-1.83-1.48 0-.9.644-1.398 1.984-1.493l2.337-.17v.923c0 1.252-1.078 2.22-2.49 2.22zm-.16.85c1.156 0 2.123-.55 2.606-1.487h.088V12h.924V6.587c0-1.64-1.047-2.607-2.9-2.607-1.655 0-2.878.828-3.062 2.08h.974c.19-.762.974-1.223 2.058-1.223 1.282 0 1.963.63 1.963 1.758v.762l-2.47.16C53.017 7.643 52 8.44 52 9.817c0 1.415 1.113 2.315 2.66 2.315zm8.986 0c1.208 0 2.227-.652 2.695-1.707h.087V12h.923V.97h-.96v4.68h-.088c-.447-1.033-1.458-1.67-2.66-1.67-2 0-3.34 1.633-3.34 4.08 0 2.446 1.327 4.072 3.34 4.072zm.205-7.288c1.544 0 2.555 1.274 2.555 3.208 0 1.948-1.003 3.208-2.556 3.208-1.56 0-2.557-1.245-2.557-3.208 0-1.956.996-3.208 2.556-3.208zm13.29 6.416c-1.625 0-2.592-1.208-2.592-3.208s.967-3.208 2.593-3.208 2.595 1.208 2.595 3.208-.967 3.208-2.593 3.208zm0 .872c2.206 0 3.59-1.56 3.59-4.08S79.346 3.98 77.14 3.98s-3.58 1.553-3.58 4.072c0 2.52 1.376 4.08 3.58 4.08zM82.804 12h.96V7.312c0-1.487.966-2.468 2.445-2.468 1.37 0 2.057.77 2.057 2.27V12h.96V6.873c0-1.838-1.012-2.893-2.77-2.893-1.252 0-2.227.58-2.644 1.553h-.095v-1.42H82.8V12zm13.39-9.91v2.02H94.92v.814h1.273v5.112c0 1.436.6 2.007 2.11 2.007.167 0 .52-.022.687-.05v-.82c-.162.014-.433.02-.587.02-.886 0-1.252-.41-1.252-1.376V4.924h1.877V4.11H97.15V2.09h-.958zM101.07 12h.96V7.312c0-1.45.98-2.468 2.475-2.468 1.377 0 2.087.784 2.087 2.27V12h.96V6.873c0-1.824-1.02-2.893-2.8-2.893-1.25 0-2.21.58-2.636 1.553h-.088V.97h-.96V12zm12.012-7.17c1.428 0 2.373 1.062 2.395 2.688h-4.915c.088-1.626 1.084-2.688 2.52-2.688zm2.3 5.222c-.337.776-1.143 1.223-2.263 1.223-1.525 0-2.514-1.143-2.565-2.922V8.31h5.925v-.426c0-2.41-1.288-3.904-3.39-3.904-2.146 0-3.523 1.604-3.523 4.08 0 2.49 1.362 4.072 3.53 4.072 1.655 0 2.87-.798 3.26-2.08h-.975zM129.774 12h1.384l-3.896-10.57h-1.304L122.062 12h1.384l1.062-3.025h4.204L129.774 12zm-3.223-8.862h.12l1.654 4.717h-3.428l1.655-4.717zm10.146.828c-1.077 0-2.02.55-2.527 1.458h-.118V4.106h-1.2v10.532h1.26v-3.823h.117c.43.835 1.34 1.326 2.467 1.326 2.007 0 3.318-1.617 3.318-4.085 0-2.483-1.304-4.087-3.318-4.087zm-.3 7.04c-1.42 0-2.322-1.144-2.322-2.953 0-1.816.9-2.952 2.33-2.952 1.442 0 2.306 1.108 2.306 2.954s-.865 2.952-2.315 2.952zm9.44-7.04c-1.076 0-2.02.55-2.526 1.458h-.118V4.106h-1.2v10.532h1.26v-3.823h.116c.432.835 1.34 1.326 2.468 1.326 2.007 0 3.318-1.617 3.318-4.085 0-2.483-1.304-4.087-3.318-4.087zm-.3 7.04c-1.42 0-2.32-1.144-2.32-2.953 0-1.816.9-2.952 2.328-2.952 1.443 0 2.307 1.108 2.307 2.954s-.863 2.952-2.313 2.952zm9.486-1.766c.14 1.824 1.686 3.01 3.927 3.01 2.416 0 3.947-1.238 3.947-3.18 0-1.552-.88-2.4-3.07-2.95l-1.105-.294c-1.458-.374-2.036-.85-2.036-1.677 0-1.07.93-1.774 2.336-1.774 1.318 0 2.212.645 2.395 1.73h1.326c-.11-1.708-1.632-2.923-3.676-2.923-2.234 0-3.735 1.216-3.735 3.01 0 1.5.827 2.366 2.738 2.85l1.355.35c1.458.367 2.117.94 2.117 1.84 0 1.046-1.047 1.815-2.468 1.815-1.5 0-2.556-.704-2.717-1.81h-1.333zm10.43-7.104v1.97h-1.325V5.16h1.326v4.79c0 1.51.653 2.11 2.28 2.11.248 0 .475-.03.724-.073v-1.062c-.234.022-.344.03-.57.03-.82 0-1.173-.397-1.173-1.327V5.16h1.832V4.105h-1.83v-1.97h-1.26zm8.058 8.87c-1.494 0-2.336-1.084-2.336-2.952 0-1.875.842-2.952 2.336-2.952 1.494 0 2.336 1.077 2.336 2.952 0 1.868-.842 2.952-2.336 2.952zm0 1.135c2.25 0 3.64-1.55 3.64-4.085 0-2.542-1.392-4.087-3.64-4.087-2.25 0-3.64 1.545-3.64 4.087 0 2.534 1.392 4.087 3.64 4.087zm5.618-.137h1.26V7.11c0-1.114.872-1.92 2.073-1.92.25 0 .703.044.806.073v-1.26c-.16-.022-.425-.037-.63-.037-1.047 0-1.956.542-2.19 1.31h-.117v-1.17h-1.2V12zm8.643-6.92c1.25 0 2.087.922 2.117 2.32h-4.35c.094-1.398.973-2.32 2.233-2.32zm2.08 4.877c-.33.695-1.02 1.068-2.036 1.068-1.34 0-2.212-.99-2.278-2.55V8.42h5.676v-.483c0-2.454-1.295-3.97-3.427-3.97-2.168 0-3.56 1.61-3.56 4.094 0 2.5 1.37 4.08 3.56 4.08 1.73 0 2.944-.826 3.325-2.18h-1.26z" fill="#555A5F"/></svg>