<svg width="192" height="15" viewBox="0 0 192 15" xmlns="http://www.w3.org/2000/svg" xmlns:sketch="http://www.bohemiancoding.com/sketch/ns"><title>app-store</title><desc>Created with Sketch.</desc><path d="M.494 1.431v10.569h3.479c3.23 0 5.017-2 5.017-5.288 0-3.281-1.794-5.281-5.017-5.281h-3.479zm1.003.908h2.417c2.578 0 4.05 1.648 4.05 4.38s-1.465 4.373-4.05 4.373h-2.417v-8.752zm12.839 8.921c-1.626 0-2.593-1.208-2.593-3.208s.967-3.208 2.593-3.208 2.593 1.208 2.593 3.208-.967 3.208-2.593 3.208zm0 .872c2.205 0 3.589-1.56 3.589-4.08s-1.384-4.072-3.589-4.072-3.582 1.553-3.582 4.072c0 2.52 1.377 4.08 3.582 4.08zm15.132-8.02h-.967l-1.765 6.694h-.088l-1.948-6.694h-.959l-1.948 6.694h-.088l-1.75-6.694h-.974l2.234 7.888h1.011l1.941-6.548h.095l1.941 6.548h1.018l2.249-7.888zm1.729 7.888h.959v-4.688c0-1.487.967-2.468 2.446-2.468 1.37 0 2.058.769 2.058 2.271v4.885h.959v-5.127c0-1.838-1.011-2.893-2.769-2.893-1.252 0-2.227.579-2.644 1.553h-.095v-1.421h-.916v7.888zm8.906 0h.959v-11.03h-.959v11.03zm6.694-.74c-1.626 0-2.593-1.208-2.593-3.208s.967-3.208 2.593-3.208 2.593 1.208 2.593 3.208-.967 3.208-2.593 3.208zm0 .872c2.205 0 3.589-1.56 3.589-4.08s-1.384-4.072-3.589-4.072-3.582 1.553-3.582 4.072c0 2.52 1.377 4.08 3.582 4.08zm8.02-.85c-1.062 0-1.831-.571-1.831-1.479 0-.901.645-1.399 1.985-1.494l2.336-.168v.923c0 1.252-1.077 2.219-2.49 2.219zm-.161.85c1.157 0 2.124-.549 2.607-1.487h.088v1.355h.923v-5.413c0-1.641-1.047-2.607-2.9-2.607-1.655 0-2.878.828-3.062 2.08h.974c.19-.762.974-1.223 2.058-1.223 1.282 0 1.963.63 1.963 1.758v.762l-2.468.161c-1.824.125-2.842.923-2.842 2.3 0 1.414 1.113 2.314 2.659 2.314zm8.987 0c1.208 0 2.227-.652 2.695-1.707h.088v1.575h.923v-11.03h-.959v4.68h-.088c-.447-1.033-1.458-1.67-2.659-1.67-2 0-3.34 1.633-3.34 4.08 0 2.446 1.326 4.072 3.34 4.072zm.205-7.288c1.545 0 2.556 1.274 2.556 3.208 0 1.948-1.003 3.208-2.556 3.208-1.56 0-2.556-1.245-2.556-3.208 0-1.956.996-3.208 2.556-3.208zm13.293 6.416c-1.626 0-2.593-1.208-2.593-3.208s.967-3.208 2.593-3.208 2.593 1.208 2.593 3.208-.967 3.208-2.593 3.208zm0 .872c2.205 0 3.589-1.56 3.589-4.08s-1.384-4.072-3.589-4.072-3.582 1.553-3.582 4.072c0 2.52 1.377 4.08 3.582 4.08zm5.662-.132h.959v-4.688c0-1.487.967-2.468 2.446-2.468 1.37 0 2.058.769 2.058 2.271v4.885h.959v-5.127c0-1.838-1.011-2.893-2.769-2.893-1.252 0-2.227.579-2.644 1.553h-.095v-1.421h-.916v7.888zm13.389-9.91v2.021h-1.274v.813h1.274v5.112c0 1.436.601 2.007 2.109 2.007.168 0 .52-.022.688-.051v-.82c-.161.015-.432.022-.586.022-.886 0-1.252-.41-1.252-1.377v-4.893h1.875v-.813h-1.875v-2.021h-.959zm4.878 9.91h.959v-4.688c0-1.45.981-2.468 2.476-2.468 1.377 0 2.087.784 2.087 2.271v4.885h.959v-5.127c0-1.824-1.018-2.893-2.798-2.893-1.252 0-2.212.579-2.637 1.553h-.088v-4.563h-.959v11.03zm12.012-7.17c1.428 0 2.373 1.062 2.395 2.688h-4.915c.088-1.626 1.084-2.688 2.52-2.688zm2.3 5.222c-.337.776-1.143 1.223-2.263 1.223-1.523 0-2.512-1.143-2.563-2.922v-.044h5.925v-.425c0-2.41-1.289-3.904-3.391-3.904-2.146 0-3.523 1.604-3.523 4.08 0 2.49 1.362 4.072 3.53 4.072 1.655 0 2.871-.798 3.259-2.08h-.974zm14.392 1.948h1.384l-3.896-10.569h-1.304l-3.896 10.569h1.384l1.062-3.025h4.204l1.062 3.025zm-3.223-8.862h.117l1.655 4.717h-3.428l1.655-4.717zm10.144.828c-1.077 0-2.021.549-2.527 1.458h-.117v-1.318h-1.201v10.532h1.26v-3.823h.117c.432.835 1.34 1.326 2.468 1.326 2.007 0 3.318-1.619 3.318-4.087 0-2.483-1.304-4.087-3.318-4.087zm-.3 7.039c-1.421 0-2.322-1.143-2.322-2.952 0-1.816.901-2.952 2.329-2.952 1.443 0 2.307 1.106 2.307 2.952 0 1.846-.864 2.952-2.314 2.952zm9.441-7.039c-1.077 0-2.021.549-2.527 1.458h-.117v-1.318h-1.201v10.532h1.26v-3.823h.117c.432.835 1.34 1.326 2.468 1.326 2.007 0 3.318-1.619 3.318-4.087 0-2.483-1.304-4.087-3.318-4.087zm-.3 7.039c-1.421 0-2.322-1.143-2.322-2.952 0-1.816.901-2.952 2.329-2.952 1.443 0 2.307 1.106 2.307 2.952 0 1.846-.864 2.952-2.314 2.952zm9.485-1.765c.139 1.824 1.685 3.01 3.926 3.01 2.417 0 3.948-1.238 3.948-3.179 0-1.553-.879-2.402-3.069-2.952l-1.106-.293c-1.458-.374-2.036-.85-2.036-1.677 0-1.069.93-1.772 2.336-1.772 1.318 0 2.212.645 2.395 1.729h1.326c-.11-1.707-1.633-2.922-3.677-2.922-2.234 0-3.735 1.216-3.735 3.01 0 1.501.828 2.366 2.739 2.849l1.355.352c1.458.366 2.117.938 2.117 1.838 0 1.047-1.047 1.816-2.468 1.816-1.501 0-2.556-.703-2.717-1.809h-1.333zm10.43-7.104v1.97h-1.326v1.055h1.326v4.79c0 1.509.652 2.109 2.278 2.109.249 0 .476-.029.725-.073v-1.062c-.234.022-.344.029-.571.029-.82 0-1.172-.396-1.172-1.326v-4.468h1.831v-1.055h-1.831v-1.97h-1.26zm8.057 8.87c-1.494 0-2.336-1.084-2.336-2.952 0-1.875.842-2.952 2.336-2.952 1.494 0 2.336 1.077 2.336 2.952 0 1.868-.842 2.952-2.336 2.952zm0 1.135c2.249 0 3.64-1.553 3.64-4.087 0-2.542-1.392-4.087-3.64-4.087-2.249 0-3.64 1.545-3.64 4.087 0 2.534 1.392 4.087 3.64 4.087zm5.618-.139h1.26v-4.893c0-1.113.872-1.919 2.073-1.919.249 0 .703.044.806.073v-1.26c-.161-.022-.425-.037-.63-.037-1.047 0-1.956.542-2.19 1.311h-.117v-1.172h-1.201v7.896zm8.643-6.921c1.252 0 2.087.923 2.117 2.322h-4.351c.095-1.399.974-2.322 2.234-2.322zm2.08 4.878c-.33.696-1.018 1.069-2.036 1.069-1.34 0-2.212-.989-2.278-2.549v-.059h5.676v-.483c0-2.454-1.296-3.97-3.428-3.97-2.168 0-3.56 1.611-3.56 4.094 0 2.498 1.37 4.08 3.56 4.08 1.729 0 2.944-.828 3.325-2.183h-1.26z" sketch:type="MSShapeGroup" fill="#555A5F"/></svg>