<svg xmlns="http://www.w3.org/2000/svg" preserveAspectRatio="xMidYMid" width="286" height="79" viewBox="0 0 286 79"><defs><style>.cls-2 { fill: #000000; filter: url(#filter-chain-1); fill-opacity: 0.2; }</style><filter id="filter-chain-1" filterUnits="userSpaceOnUse"><feOffset in="SourceAlpha" dx="1.5" dy="2.598"/><feGaussianBlur result="dropShadow" stdDeviation="1.732"/><feFlood flood-color="#fff" flood-opacity=".1"/><feComposite operator="in" in2="dropShadow"/><feComposite in="SourceGraphic" result="dropShadow"/><feOffset in="SourceAlpha" dx="1.5" dy="2.598"/><feGaussianBlur result="innerShadowBlur" stdDeviation="1.732"/><feFlood flood-color="#040000" flood-opacity=".05"/><feComposite operator="out" in2="innerShadowBlur"/><feComposite operator="in" in2="SourceAlpha"/><feBlend mode="multiply" in2="dropShadow" result="innerShadow"/></filter></defs><path d="M282.834 55.873h-16.406c.065 2.387.857 4.211 2.38 5.469 1.382 1.126 3.171 1.689 5.365 1.689 2.43 0 4.644-.381 6.638-1.143l.856 3.727c-2.329.996-5.079 1.492-8.25 1.492-3.817 0-6.813-1.101-8.992-3.306-2.175-2.203-3.266-5.16-3.266-8.872 0-3.644 1.011-6.678 3.04-9.096 2.124-2.584 4.995-3.875 8.607-3.875 3.546 0 6.231 1.291 8.055 3.875 1.447 2.055 2.174 4.592 2.174 7.606 0 .961-.065 1.772-.201 2.434zm-6.076-7.951c-.947-1.492-2.4-2.237-4.358-2.237-1.789 0-3.241.728-4.354 2.188-.911 1.16-1.452 2.552-1.618 4.174h11.392c.035-1.59-.321-2.964-1.062-4.125zm-4.318-32.053c.035 1.173.421 2.068 1.167 2.686.681.555 1.563.831 2.64.831 1.192 0 2.279-.186 3.261-.561l.421 1.831c-1.147.488-2.495.733-4.058.733-1.873 0-3.346-.541-4.413-1.624-1.072-1.083-1.603-2.536-1.603-4.359 0-1.791.496-3.281 1.493-4.469 1.042-1.27 2.449-1.904 4.228-1.904 1.738 0 3.061.634 3.952 1.904.717 1.01 1.072 2.255 1.072 3.736 0 .472-.035.871-.1 1.196h-8.06zm5.074-3.906c-.465-.732-1.177-1.099-2.139-1.099-.876 0-1.593.358-2.139 1.075-.446.57-.711 1.253-.796 2.051h5.595c.02-.782-.155-1.458-.521-2.027zm-14.282 2.458c0-2.127-.811-3.19-2.434-3.19-1.247 0-2.099.617-2.565 1.851-.08.259-.125.576-.125.95v7.137h-2.685v-17.314h2.685v7.153h.05c.846-1.3 2.059-1.951 3.632-1.951 1.112 0 2.033.358 2.765 1.075.912.895 1.368 2.222 1.368 3.98v7.057h-2.691v-6.748zm-6.021 27.586c.506 0 .962.035 1.368.099v5.118c-.541-.099-1.118-.148-1.724-.148-1.923 0-3.411.713-4.458 2.139-.912 1.259-1.368 2.85-1.368 4.77v12.675h-5.465l.05-16.55c0-2.785-.07-5.32-.205-7.606h4.764l.2 4.621h.15c.577-1.587 1.488-2.866 2.736-3.825 1.217-.863 2.535-1.293 3.952-1.293zm-8.481-24.965c0 1.465.526 2.198 1.568 2.198.481 0 .882-.04 1.197-.123l.07 2.003c-.531.195-1.227.293-2.088.293-1.063 0-1.889-.318-2.485-.952-.602-.636-.897-1.702-.897-3.199v-5.983h-1.768v-1.978h1.768v-2.173l2.635-.781v2.954h2.96v1.978h-2.96v5.763zm-20.183 50.164c-3.612 0-6.487-1.175-8.631-3.528-2.145-2.353-3.216-5.32-3.216-8.897 0-3.744 1.102-6.81 3.316-9.194 2.209-2.387 5.19-3.58 8.937-3.58 3.611 0 6.517 1.175 8.711 3.531 2.094 2.286 3.141 5.233 3.141 8.845 0 3.712-1.082 6.76-3.241 9.145-2.264 2.454-5.27 3.678-9.017 3.678zm5.115-18.382c-1.148-1.927-2.786-2.891-4.91-2.891-2.199 0-3.867.964-5.014 2.891-.982 1.596-1.468 3.538-1.468 5.834 0 2.227.486 4.138 1.468 5.731 1.182 1.927 2.835 2.891 4.964 2.891 2.089 0 3.727-.981 4.909-2.94 1.012-1.628 1.518-3.558 1.518-5.783 0-2.227-.486-4.137-1.467-5.733zm-2.746-34.452c0-2.094-.811-3.141-2.439-3.141-.797 0-1.443.287-1.939.864-.496.576-.746 1.255-.746 2.034v7.04h-2.69v-8.473c0-1.043-.03-2.173-.095-3.395h2.359l.125 1.855h.075c.316-.576.782-1.054 1.393-1.432.731-.444 1.543-.667 2.439-.667 1.128 0 2.064.358 2.811 1.075.931.878 1.392 2.189 1.392 3.931v7.106h-2.685v-6.797zm-17.788 7.066c-1.774 0-3.186-.578-4.243-1.734-1.052-1.156-1.578-2.614-1.578-4.372 0-1.838.541-3.344 1.628-4.517 1.087-1.173 2.55-1.758 4.393-1.758 1.773 0 3.201.578 4.278 1.733 1.027 1.124 1.543 2.573 1.543 4.347 0 1.824-.531 3.321-1.593 4.493-1.112 1.206-2.585 1.808-4.428 1.808zm2.515-9.031c-.566-.948-1.368-1.421-2.415-1.421-1.077 0-1.899.473-2.465 1.421-.481.783-.721 1.738-.721 2.864 0 1.095.24 2.033.721 2.817.582.947 1.393 1.42 2.44 1.42 1.027 0 1.833-.482 2.414-1.444.496-.801.747-1.747.747-2.841s-.24-2.033-.721-2.816zm-8.061 24.082v6.015h6.027v4.027h-6.027v11.729c0 2.982 1.062 4.474 3.191 4.474.977 0 1.789-.084 2.43-.248l.15 4.076c-1.077.396-2.495.595-4.253.595-2.159 0-3.847-.647-5.064-1.938-1.213-1.293-1.824-3.463-1.824-6.512v-12.176h-3.592v-4.027h3.592v-4.424l5.37-1.591zm-13.931-17.226h-.075c-.762 1.45-2.059 2.175-3.882 2.175-1.458 0-2.67-.562-3.632-1.685-.962-1.124-1.443-2.581-1.443-4.371 0-1.922.521-3.477 1.568-4.664 1.012-1.107 2.254-1.661 3.732-1.661 1.623 0 2.76.537 3.406 1.612h.05v-6.814h2.69v14.115c0 1.156.031 2.221.096 3.199h-2.385l-.125-1.906zm-.276-5.079c0-.342-.025-.618-.075-.829-.15-.635-.476-1.168-.972-1.6-.501-.431-1.102-.647-1.798-.647-1.002 0-1.788.391-2.364 1.172-.571.782-.862 1.783-.862 3.003 0 1.173.276 2.126.827 2.858.581.781 1.367 1.172 2.349 1.172.882 0 1.588-.326 2.124-.976.516-.603.771-1.328.771-2.174v-1.979zm.837 20.068l-1.368 4.375c-1.923-1.027-4.097-1.541-6.532-1.541-1.924 0-3.426.464-4.503 1.392-.912.829-1.368 1.838-1.368 3.033 0 1.325.521 2.419 1.568 3.279.912.797 2.565 1.657 4.964 2.586 2.936 1.161 5.095 2.518 6.483 4.074 1.382 1.559 2.074 3.498 2.074 5.817 0 2.849-1.007 5.167-3.031 6.957-2.225 1.957-5.32 2.933-9.298 2.933-3.672 0-6.617-.696-8.847-2.088l1.268-4.474c2.399 1.426 5.034 2.139 7.905 2.139 2.059 0 3.662-.457 4.814-1.369 1.147-.912 1.718-2.134 1.718-3.661 0-1.359-.471-2.505-1.418-3.434-.941-.93-2.514-1.793-4.708-2.592-5.977-2.187-8.962-5.391-8.962-9.607 0-2.753 1.047-5.011 3.14-6.77 2.09-1.759 4.875-2.639 8.356-2.639 3.106 0 5.686.531 7.745 1.59zm-15.94-14.45h-.075c-.827 1.09-2.004 1.636-3.532 1.636-1.142 0-2.064-.359-2.76-1.076-.631-.65-.947-1.456-.947-2.416 0-1.45.616-2.556 1.853-3.322 1.238-.764 2.976-1.139 5.215-1.123v-.22c0-1.562-.836-2.344-2.509-2.344-1.193 0-2.245.294-3.151.879l-.546-1.734c1.122-.683 2.509-1.025 4.147-1.025 3.161 0 4.744 1.636 4.744 4.909v4.371c0 1.187.061 2.132.176 2.832h-2.415l-.2-1.367zm-.175-4.542c-2.966-.049-4.449.748-4.449 2.392 0 .619.17 1.083.516 1.393.346.308.787.463 1.313.463.591 0 1.142-.183 1.643-.549.506-.367.816-.834.932-1.404.029-.131.045-.285.045-.465v-1.83zm-16.241 6.178c-1.778 0-3.191-.578-4.243-1.734-1.052-1.156-1.578-2.614-1.578-4.372 0-1.838.541-3.344 1.628-4.517 1.087-1.173 2.55-1.758 4.388-1.758 1.779 0 3.201.578 4.283 1.733 1.027 1.124 1.543 2.573 1.543 4.347 0 1.824-.531 3.321-1.593 4.493-1.112 1.206-2.589 1.808-4.428 1.808zm2.51-9.031c-.561-.948-1.368-1.421-2.41-1.421-1.082 0-1.904.473-2.465 1.421-.48.783-.721 1.738-.721 2.864 0 1.095.241 2.033.721 2.817.581.947 1.393 1.42 2.44 1.42 1.027 0 1.828-.482 2.41-1.444.501-.801.746-1.747.746-2.841s-.24-2.033-.721-2.816zm-.486 41.877c0 4.108-1.132 7.356-3.397 9.741-2.024 2.121-4.538 3.181-7.544 3.181-3.241 0-5.57-1.143-6.987-3.43h-.1v12.725h-5.469v-26.044c0-2.584-.069-5.234-.203-7.953h4.81l.305 3.828h.101c1.822-2.884 4.588-4.325 8.305-4.325 2.9 0 5.324 1.126 7.268 3.378 1.939 2.257 2.911 5.222 2.911 8.899zm-7.194-5.617c-1.182-1.591-2.765-2.387-4.759-2.387-1.352 0-2.575.442-3.672 1.318-1.097.88-1.812 2.03-2.15 3.456-.168.664-.253 1.21-.253 1.637v4.027c0 1.758.549 3.24 1.642 4.45 1.097 1.209 2.525 1.814 4.283 1.814 2.059 0 3.662-.779 4.809-2.335 1.147-1.559 1.723-3.614 1.723-6.166 0-2.35-.541-4.29-1.623-5.814zm-7.319-44.812h2.685v17.314h-2.685v-17.314zm-7.415 10.517c0-2.094-.811-3.141-2.437-3.141-.797 0-1.443.287-1.941.864-.496.576-.747 1.255-.747 2.034v7.04h-2.687v-8.473c0-1.043-.033-2.173-.098-3.395h2.362l.125 1.855h.075c.313-.576.779-1.054 1.393-1.432.729-.444 1.543-.667 2.437-.667 1.13 0 2.067.358 2.813 1.075.929.878 1.393 2.189 1.393 3.931v7.106h-2.688v-6.797zm-9.773 49.653c-2.027 2.121-4.542 3.181-7.546 3.181-3.241 0-5.57-1.143-6.988-3.43h-.102v12.725h-5.469v-26.044c0-2.584-.069-5.234-.202-7.953h4.81l.304 3.828h.102c1.823-2.884 4.591-4.325 8.304-4.325 2.904 0 5.326 1.126 7.268 3.378 1.941 2.257 2.911 5.222 2.911 8.899 0 4.108-1.131 7.356-3.392 9.741zm-3.799-15.358c-1.182-1.591-2.769-2.387-4.76-2.387-1.35 0-2.575.442-3.671 1.318-1.098.88-1.816 2.03-2.153 3.456-.169.664-.253 1.21-.253 1.637v4.027c0 1.758.549 3.24 1.646 4.45 1.097 1.209 2.524 1.814 4.279 1.814 2.059 0 3.664-.779 4.811-2.335 1.147-1.559 1.722-3.614 1.722-6.166 0-2.35-.54-4.29-1.621-5.814zm-3.918-27.498l-1.569-5.153c-.398-1.286-.721-2.564-.971-3.834h-.048c-.233 1.303-.556 2.581-.972 3.834l-1.665 5.153h-2.49l-3.557-11.868h2.763l1.367 5.641c.331 1.334.604 2.604.822 3.809h.048c.2-.992.531-2.255.996-3.785l1.716-5.665h2.189l1.643 5.543c.399 1.351.722 2.654.97 3.907h.075c.183-1.221.456-2.523.822-3.907l1.467-5.543h2.638l-3.782 11.868h-2.462zm-19.928.269c-1.776 0-3.189-.578-4.243-1.734-1.052-1.156-1.578-2.614-1.578-4.372 0-1.838.541-3.344 1.628-4.517 1.087-1.173 2.55-1.758 4.391-1.758 1.776 0 3.201.578 4.28 1.733 1.027 1.124 1.543 2.573 1.543 4.347 0 1.824-.531 3.321-1.593 4.493-1.112 1.206-2.587 1.808-4.428 1.808zm2.512-9.031c-.564-.948-1.368-1.421-2.412-1.421-1.08 0-1.901.473-2.465 1.421-.48.783-.721 1.738-.721 2.864 0 1.095.241 2.033.721 2.817.581.947 1.393 1.42 2.44 1.42 1.027 0 1.831-.482 2.412-1.444.498-.801.747-1.747.747-2.841s-.241-2.033-.722-2.816zm-5.555 54.253l-3.191-9.841h-11.09l-3.04 9.841h-5.67l10.988-33.501h6.786l11.04 33.501h-5.823zm-7.04-22.715c-.304-.895-.878-3-1.722-6.313h-.102c-.336 1.427-.877 3.53-1.62 6.313l-2.835 8.746h9.166l-2.887-8.746zm-8.773-22.63c-1.528 0-2.838-.065-3.932-.195v-16.19c1.427-.228 2.968-.342 4.629-.342 2.935 0 5.149.627 6.642 1.881 1.673 1.416 2.512 3.443 2.512 6.079 0 2.964-.904 5.194-2.712 6.692-1.676 1.383-4.055 2.075-7.139 2.075zm5.461-13.113c-1.037-1.025-2.55-1.538-4.541-1.538-.847 0-1.569.057-2.165.171v12.307c.331.049.937.073 1.816.073 2.057 0 3.645-.561 4.764-1.685 1.12-1.123 1.681-2.759 1.681-4.908 0-1.921-.518-3.394-1.555-4.42zm-39.933 51.048c-2.688 3.946-5.506 7.801-9.978 7.872-4.346.099-5.806-2.51-10.79-2.51-5.031 0-6.588 2.439-10.756 2.609-4.259.154-7.514-4.212-10.299-8.121-5.567-7.982-9.902-22.495-4.09-32.37 2.816-4.843 7.952-7.962 13.44-8.046 4.263-.086 8.222 2.826 10.843 2.826 2.571 0 7.463-3.483 12.509-2.963 2.11.059 8.117.817 11.992 6.363-.313.185-7.156 4.133-7.081 12.246.085 9.726 8.668 12.939 8.772 12.974-.052.226-1.344 4.639-4.562 9.12zm-22.144-41.44c-.477-3.654 1.37-7.542 3.437-9.913 2.336-2.693 6.393-4.753 9.638-4.895.426 3.8-1.108 7.543-3.349 10.295-2.339 2.709-6.081 4.779-9.726 4.513z" id="path-1" class="cls-2" fill-rule="evenodd"/></svg>