<?xml version="1.0" encoding="UTF-8" standalone="no"?>
<svg width="18px" height="22px" viewBox="0 0 18 22" version="1.1" xmlns="http://www.w3.org/2000/svg" xmlns:xlink="http://www.w3.org/1999/xlink" xmlns:sketch="http://www.bohemiancoding.com/sketch/ns">
    <!-- Generator: Sketch 3.3.2 (12043) - http://www.bohemiancoding.com/sketch -->
    <title>apple</title>
    <desc>Created with Sketch.</desc>
    <defs>
        <path d="M413.68505,573.316406 C414.493644,572.4375 414.938956,571.230469 414.868644,570 C413.767081,570 412.489738,570.644531 411.681144,571.59375 C411.048331,572.378906 410.368644,573.609375 410.614738,574.839844 C411.751456,574.980469 412.981925,574.265625 413.68505,573.316406 L413.68505,573.316406 Z M414.763175,575.109375 C413.052238,575.109375 411.540519,576.058594 410.731925,576.058594 C409.888175,576.058594 408.657706,575.0625 407.274894,575.109375 C405.470206,575.144531 403.817863,576.210938 402.892081,577.78125 C402.235831,578.90625 401.978019,580.230469 402.001456,581.578125 C402.036613,584.121094 403.032706,586.769531 404.204581,588.457031 C405.106925,589.746094 406.126456,591.128906 407.567863,591.128906 C408.868644,591.128906 409.349113,590.261719 411.048331,590.261719 C412.630363,590.261719 413.12255,591.128906 414.493644,591.128906 C415.93505,591.128906 416.884269,589.816406 417.739738,588.515625 C418.817863,587.003906 419.181144,585.5625 419.228019,585.503906 C419.181144,585.503906 416.462394,584.402344 416.356925,581.261719 C416.356925,578.507812 418.595206,577.265625 418.688956,577.207031 C417.470206,575.332031 415.501456,575.109375 414.763175,575.109375 L414.763175,575.109375 Z" id="path-1"></path>
    </defs>
    <g id="Web" stroke="none" stroke-width="1" fill="none" fill-rule="evenodd" sketch:type="MSPage">
        <g id="Desktop-HD" sketch:type="MSArtboardGroup" transform="translate(-402.000000, -570.000000)">
            <g id="apple">
                <use fill="#000000" fill-rule="evenodd" sketch:type="MSShapeGroup" xlink:href="#path-1"></use>
                <use fill="none" xlink:href="#path-1"></use>
            </g>
        </g>
    </g>
</svg>