<?xml version="1.0" encoding="UTF-8" standalone="no"?>
<svg width="187px" height="12px" viewBox="0 0 187 12" version="1.1" xmlns="http://www.w3.org/2000/svg" xmlns:xlink="http://www.w3.org/1999/xlink" xmlns:sketch="http://www.bohemiancoding.com/sketch/ns">
    <!-- Generator: Sketch 3.3.2 (12043) - http://www.bohemiancoding.com/sketch -->
    <title>description</title>
    <desc>Created with Sketch.</desc>
    <defs></defs>
    <g id="Web" stroke="none" stroke-width="1" fill="none" fill-rule="evenodd" sketch:type="MSPage">
        <g id="Desktop-HD" sketch:type="MSArtboardGroup" transform="translate(-418.000000, -514.000000)" fill="#000000">
            <path d="M418,524.995 L421.495,524.995 C424.795,524.995 427.075,522.7 427.075,519.745 L427.075,519.715 C427.075,516.76 424.795,514.495 421.495,514.495 L418,514.495 L418,524.995 Z M421.495,515.215 C424.42,515.215 426.265,517.255 426.265,519.745 L426.265,519.775 C426.265,522.28 424.42,524.275 421.495,524.275 L418.78,524.275 L418.78,515.215 L421.495,515.215 Z M429.565,524.995 L430.3,524.995 L430.3,521.86 C430.3,519.37 431.845,518.035 433.615,518.035 L433.69,518.035 L433.69,517.225 C432.175,517.165 430.9,518.155 430.3,519.52 L430.3,517.345 L429.565,517.345 L429.565,524.995 Z M435.58,515.35 L436.495,515.35 L436.495,514.345 L435.58,514.345 L435.58,515.35 Z M435.67,524.995 L436.405,524.995 L436.405,517.345 L435.67,517.345 L435.67,524.995 Z M443.185,525.175 C445.03,525.175 446.905,523.66 446.905,521.17 L446.905,521.14 C446.905,518.65 445.03,517.165 443.185,517.165 C441.67,517.165 440.695,518.05 440.035,519.055 L440.035,514.045 L439.3,514.045 L439.3,524.995 L440.035,524.995 L440.035,523.345 C440.665,524.305 441.655,525.175 443.185,525.175 L443.185,525.175 Z M443.11,524.47 C441.52,524.47 439.99,523.15 439.99,521.185 L439.99,521.155 C439.99,519.205 441.52,517.87 443.11,517.87 C444.715,517.87 446.11,519.16 446.11,521.17 L446.11,521.2 C446.11,523.255 444.775,524.47 443.11,524.47 L443.11,524.47 Z M453.085,525.175 C454.93,525.175 456.805,523.66 456.805,521.17 L456.805,521.14 C456.805,518.65 454.93,517.165 453.085,517.165 C451.57,517.165 450.595,518.05 449.935,519.055 L449.935,514.045 L449.2,514.045 L449.2,524.995 L449.935,524.995 L449.935,523.345 C450.565,524.305 451.555,525.175 453.085,525.175 L453.085,525.175 Z M453.01,524.47 C451.42,524.47 449.89,523.15 449.89,521.185 L449.89,521.155 C449.89,519.205 451.42,517.87 453.01,517.87 C454.615,517.87 456.01,519.16 456.01,521.17 L456.01,521.2 C456.01,523.255 454.675,524.47 453.01,524.47 L453.01,524.47 Z M462.985,525.175 C464.83,525.175 466.705,523.66 466.705,521.17 L466.705,521.14 C466.705,518.65 464.83,517.165 462.985,517.165 C461.47,517.165 460.495,518.05 459.835,519.055 L459.835,514.045 L459.1,514.045 L459.1,524.995 L459.835,524.995 L459.835,523.345 C460.465,524.305 461.455,525.175 462.985,525.175 L462.985,525.175 Z M462.91,524.47 C461.32,524.47 459.79,523.15 459.79,521.185 L459.79,521.155 C459.79,519.205 461.32,517.87 462.91,517.87 C464.515,517.87 465.91,519.16 465.91,521.17 L465.91,521.2 C465.91,523.255 464.575,524.47 462.91,524.47 L462.91,524.47 Z M469.105,524.995 L469.84,524.995 L469.84,514.045 L469.105,514.045 L469.105,524.995 Z M475.96,525.175 C477.43,525.175 478.345,524.575 479.125,523.735 L478.615,523.285 C477.985,523.96 477.175,524.485 475.99,524.485 C474.49,524.485 473.125,523.375 472.99,521.47 L479.335,521.47 C479.35,521.35 479.35,521.305 479.35,521.17 C479.35,518.905 477.985,517.165 475.84,517.165 C473.77,517.165 472.21,518.935 472.21,521.155 L472.21,521.185 C472.21,523.57 473.95,525.175 475.96,525.175 L475.96,525.175 Z M472.99,520.81 C473.125,519.115 474.295,517.84 475.81,517.84 C477.565,517.84 478.45,519.265 478.555,520.81 L472.99,520.81 Z M489.37,525.175 C490.78,525.175 491.71,524.545 492.49,523.66 L491.98,523.21 C491.335,523.93 490.495,524.485 489.415,524.485 C487.66,524.485 486.265,523.015 486.265,521.17 L486.265,521.14 C486.265,519.31 487.615,517.855 489.355,517.855 C490.495,517.855 491.245,518.44 491.905,519.115 L492.43,518.575 C491.71,517.825 490.81,517.165 489.37,517.165 C487.18,517.165 485.47,519.025 485.47,521.17 L485.47,521.2 C485.47,523.345 487.165,525.175 489.37,525.175 L489.37,525.175 Z M494.665,524.995 L495.4,524.995 L495.4,514.045 L494.665,514.045 L494.665,524.995 Z M498.31,515.35 L499.225,515.35 L499.225,514.345 L498.31,514.345 L498.31,515.35 Z M498.4,524.995 L499.135,524.995 L499.135,517.345 L498.4,517.345 L498.4,524.995 Z M505.255,525.175 C506.725,525.175 507.64,524.575 508.42,523.735 L507.91,523.285 C507.28,523.96 506.47,524.485 505.285,524.485 C503.785,524.485 502.42,523.375 502.285,521.47 L508.63,521.47 C508.645,521.35 508.645,521.305 508.645,521.17 C508.645,518.905 507.28,517.165 505.135,517.165 C503.065,517.165 501.505,518.935 501.505,521.155 L501.505,521.185 C501.505,523.57 503.245,525.175 505.255,525.175 L505.255,525.175 Z M502.285,520.81 C502.42,519.115 503.59,517.84 505.105,517.84 C506.86,517.84 507.745,519.265 507.85,520.81 L502.285,520.81 Z M510.79,524.995 L511.525,524.995 L511.525,520.57 C511.525,518.98 512.68,517.84 514.18,517.84 C515.725,517.84 516.61,518.875 516.61,520.45 L516.61,524.995 L517.345,524.995 L517.345,520.315 C517.345,518.485 516.22,517.165 514.285,517.165 C512.89,517.165 512.035,517.87 511.525,518.77 L511.525,517.345 L510.79,517.345 L510.79,524.995 Z M522.535,525.13 C523.015,525.13 523.39,525.04 523.78,524.86 L523.78,524.17 C523.345,524.365 523.03,524.44 522.655,524.44 C521.77,524.44 521.125,524.05 521.125,522.955 L521.125,518.02 L523.81,518.02 L523.81,517.345 L521.125,517.345 L521.125,514.9 L520.39,514.9 L520.39,517.345 L519.28,517.345 L519.28,518.02 L520.39,518.02 L520.39,523.03 C520.39,524.485 521.35,525.13 522.535,525.13 L522.535,525.13 Z M530.935,524.995 L531.67,524.995 L531.67,518.02 L534.34,518.02 L534.34,517.345 L531.67,517.345 L531.67,516.61 C531.67,515.305 532.165,514.675 533.215,514.675 C533.605,514.675 533.92,514.735 534.355,514.87 L534.355,514.18 C534.01,514.06 533.68,514 533.215,514 C532.54,514 532,514.21 531.61,514.6 C531.175,515.035 530.935,515.725 530.935,516.595 L530.935,517.345 L529.825,517.345 L529.825,518.02 L530.935,518.02 L530.935,524.995 Z M539.155,525.175 C541.435,525.175 543.1,523.315 543.1,521.17 L543.1,521.14 C543.1,518.995 541.45,517.165 539.185,517.165 C536.905,517.165 535.24,519.025 535.24,521.17 L535.24,521.2 C535.24,523.345 536.89,525.175 539.155,525.175 L539.155,525.175 Z M539.185,524.485 C537.415,524.485 536.035,523.015 536.035,521.17 L536.035,521.14 C536.035,519.34 537.34,517.855 539.155,517.855 C540.925,517.855 542.305,519.325 542.305,521.17 L542.305,521.2 C542.305,523 541,524.485 539.185,524.485 L539.185,524.485 Z M545.365,524.995 L546.1,524.995 L546.1,521.86 C546.1,519.37 547.645,518.035 549.415,518.035 L549.49,518.035 L549.49,517.225 C547.975,517.165 546.7,518.155 546.1,519.52 L546.1,517.345 L545.365,517.345 L545.365,524.995 Z M555.88,515.35 L556.795,515.35 L556.795,514.345 L555.88,514.345 L555.88,515.35 Z M555.97,524.995 L556.705,524.995 L556.705,517.345 L555.97,517.345 L555.97,524.995 Z M559.765,524.995 L560.545,524.995 L560.545,521.08 L563.38,521.08 C565.57,521.08 567.475,519.94 567.475,517.735 L567.475,517.705 C567.475,515.68 565.885,514.495 563.575,514.495 L559.765,514.495 L559.765,524.995 Z M560.545,520.36 L560.545,515.215 L563.515,515.215 C565.405,515.215 566.695,516.085 566.695,517.75 L566.695,517.78 C566.695,519.34 565.375,520.36 563.425,520.36 L560.545,520.36 Z M569.62,524.995 L570.355,524.995 L570.355,520.57 C570.355,518.98 571.51,517.84 573.01,517.84 C574.555,517.84 575.44,518.875 575.44,520.45 L575.44,524.995 L576.175,524.995 L576.175,520.315 C576.175,518.485 575.05,517.165 573.115,517.165 C571.72,517.165 570.865,517.87 570.355,518.77 L570.355,514.045 L569.62,514.045 L569.62,524.995 Z M582.205,525.175 C584.485,525.175 586.15,523.315 586.15,521.17 L586.15,521.14 C586.15,518.995 584.5,517.165 582.235,517.165 C579.955,517.165 578.29,519.025 578.29,521.17 L578.29,521.2 C578.29,523.345 579.94,525.175 582.205,525.175 L582.205,525.175 Z M582.235,524.485 C580.465,524.485 579.085,523.015 579.085,521.17 L579.085,521.14 C579.085,519.34 580.39,517.855 582.205,517.855 C583.975,517.855 585.355,519.325 585.355,521.17 L585.355,521.2 C585.355,523 584.05,524.485 582.235,524.485 L582.235,524.485 Z M588.415,524.995 L589.15,524.995 L589.15,520.57 C589.15,518.98 590.305,517.84 591.805,517.84 C593.35,517.84 594.235,518.875 594.235,520.45 L594.235,524.995 L594.97,524.995 L594.97,520.315 C594.97,518.485 593.845,517.165 591.91,517.165 C590.515,517.165 589.66,517.87 589.15,518.77 L589.15,517.345 L588.415,517.345 L588.415,524.995 Z M600.835,525.175 C602.305,525.175 603.22,524.575 604,523.735 L603.49,523.285 C602.86,523.96 602.05,524.485 600.865,524.485 C599.365,524.485 598,523.375 597.865,521.47 L604.21,521.47 C604.225,521.35 604.225,521.305 604.225,521.17 C604.225,518.905 602.86,517.165 600.715,517.165 C598.645,517.165 597.085,518.935 597.085,521.155 L597.085,521.185 C597.085,523.57 598.825,525.175 600.835,525.175 L600.835,525.175 Z M597.865,520.81 C598,519.115 599.17,517.84 600.685,517.84 C602.44,517.84 603.325,519.265 603.43,520.81 L597.865,520.81 Z" id="description" sketch:type="MSShapeGroup"></path>
        </g>
    </g>
</svg>