<svg width="187" height="12" viewBox="0 0 187 12" xmlns="http://www.w3.org/2000/svg" xmlns:sketch="http://www.bohemiancoding.com/sketch/ns"><title>description</title><desc>Created with Sketch.</desc><path d="M0 10.995h3.495c3.3 0 5.58-2.295 5.58-5.25v-.03c0-2.955-2.28-5.22-5.58-5.22h-3.495v10.5zm3.495-9.78c2.925 0 4.77 2.04 4.77 4.53v.03c0 2.505-1.845 4.5-4.77 4.5h-2.715v-9.06h2.715zm8.07 9.78h.735v-3.135c0-2.49 1.545-3.825 3.315-3.825h.075v-.81c-1.515-.06-2.79.93-3.39 2.295v-2.175h-.735v7.65zm6.015-9.645h.915v-1.005h-.915v1.005zm.09 9.645h.735v-7.65h-.735v7.65zm7.515.18c1.845 0 3.72-1.515 3.72-4.005v-.03c0-2.49-1.875-3.975-3.72-3.975-1.515 0-2.49.885-3.15 1.89v-5.01h-.735v10.95h.735v-1.65c.63.96 1.62 1.83 3.15 1.83zm-.075-.705c-1.59 0-3.12-1.32-3.12-3.285v-.03c0-1.95 1.53-3.285 3.12-3.285 1.605 0 3 1.29 3 3.3v.03c0 2.055-1.335 3.27-3 3.27zm9.975.705c1.845 0 3.72-1.515 3.72-4.005v-.03c0-2.49-1.875-3.975-3.72-3.975-1.515 0-2.49.885-3.15 1.89v-5.01h-.735v10.95h.735v-1.65c.63.96 1.62 1.83 3.15 1.83zm-.075-.705c-1.59 0-3.12-1.32-3.12-3.285v-.03c0-1.95 1.53-3.285 3.12-3.285 1.605 0 3 1.29 3 3.3v.03c0 2.055-1.335 3.27-3 3.27zm9.975.705c1.845 0 3.72-1.515 3.72-4.005v-.03c0-2.49-1.875-3.975-3.72-3.975-1.515 0-2.49.885-3.15 1.89v-5.01h-.735v10.95h.735v-1.65c.63.96 1.62 1.83 3.15 1.83zm-.075-.705c-1.59 0-3.12-1.32-3.12-3.285v-.03c0-1.95 1.53-3.285 3.12-3.285 1.605 0 3 1.29 3 3.3v.03c0 2.055-1.335 3.27-3 3.27zm6.195.525h.735v-10.95h-.735v10.95zm6.855.18c1.47 0 2.385-.6 3.165-1.44l-.51-.45c-.63.675-1.44 1.2-2.625 1.2-1.5 0-2.865-1.11-3-3.015h6.345l.015-.3c0-2.265-1.365-4.005-3.51-4.005-2.07 0-3.63 1.77-3.63 3.99v.03c0 2.385 1.74 3.99 3.75 3.99zm-2.97-4.365c.135-1.695 1.305-2.97 2.82-2.97 1.755 0 2.64 1.425 2.745 2.97h-5.565zm16.38 4.365c1.41 0 2.34-.63 3.12-1.515l-.51-.45c-.645.72-1.485 1.275-2.565 1.275-1.755 0-3.15-1.47-3.15-3.315v-.03c0-1.83 1.35-3.285 3.09-3.285 1.14 0 1.89.585 2.55 1.26l.525-.54c-.72-.75-1.62-1.41-3.06-1.41-2.19 0-3.9 1.86-3.9 4.005v.03c0 2.145 1.695 3.975 3.9 3.975zm5.295-.18h.735v-10.95h-.735v10.95zm3.645-9.645h.915v-1.005h-.915v1.005zm.09 9.645h.735v-7.65h-.735v7.65zm6.855.18c1.47 0 2.385-.6 3.165-1.44l-.51-.45c-.63.675-1.44 1.2-2.625 1.2-1.5 0-2.865-1.11-3-3.015h6.345l.015-.3c0-2.265-1.365-4.005-3.51-4.005-2.07 0-3.63 1.77-3.63 3.99v.03c0 2.385 1.74 3.99 3.75 3.99zm-2.97-4.365c.135-1.695 1.305-2.97 2.82-2.97 1.755 0 2.64 1.425 2.745 2.97h-5.565zm8.505 4.185h.735v-4.425c0-1.59 1.155-2.73 2.655-2.73 1.545 0 2.43 1.035 2.43 2.61v4.545h.735v-4.68c0-1.83-1.125-3.15-3.06-3.15-1.395 0-2.25.705-2.76 1.605v-1.425h-.735v7.65zm11.745.135c.48 0 .855-.09 1.245-.27v-.69c-.435.195-.75.27-1.125.27-.885 0-1.53-.39-1.53-1.485v-4.935h2.685v-.675h-2.685v-2.445h-.735v2.445h-1.11v.675h1.11v5.01c0 1.455.96 2.1 2.145 2.1zm8.4-.135h.735v-6.975h2.67v-.675h-2.67v-.735c0-1.305.495-1.935 1.545-1.935.39 0 .705.06 1.14.195v-.69c-.345-.12-.675-.18-1.14-.18-.675 0-1.215.21-1.605.6-.435.435-.675 1.125-.675 1.995v.75h-1.11v.675h1.11v6.975zm8.22.18c2.28 0 3.945-1.86 3.945-4.005v-.03c0-2.145-1.65-3.975-3.915-3.975-2.28 0-3.945 1.86-3.945 4.005v.03c0 2.145 1.65 3.975 3.915 3.975zm.03-.69c-1.77 0-3.15-1.47-3.15-3.315v-.03c0-1.8 1.305-3.285 3.12-3.285 1.77 0 3.15 1.47 3.15 3.315v.03c0 1.8-1.305 3.285-3.12 3.285zm6.18.51h.735v-3.135c0-2.49 1.545-3.825 3.315-3.825h.075v-.81c-1.515-.06-2.79.93-3.39 2.295v-2.175h-.735v7.65zm10.515-9.645h.915v-1.005h-.915v1.005zm.09 9.645h.735v-7.65h-.735v7.65zm3.795 0h.78v-3.915h2.835c2.19 0 4.095-1.14 4.095-3.345v-.03c0-2.025-1.59-3.21-3.9-3.21h-3.81v10.5zm.78-4.635v-5.145h2.97c1.89 0 3.18.87 3.18 2.535v.03c0 1.56-1.32 2.58-3.27 2.58h-2.88zm9.075 4.635h.735v-4.425c0-1.59 1.155-2.73 2.655-2.73 1.545 0 2.43 1.035 2.43 2.61v4.545h.735v-4.68c0-1.83-1.125-3.15-3.06-3.15-1.395 0-2.25.705-2.76 1.605v-4.725h-.735v10.95zm12.585.18c2.28 0 3.945-1.86 3.945-4.005v-.03c0-2.145-1.65-3.975-3.915-3.975-2.28 0-3.945 1.86-3.945 4.005v.03c0 2.145 1.65 3.975 3.915 3.975zm.03-.69c-1.77 0-3.15-1.47-3.15-3.315v-.03c0-1.8 1.305-3.285 3.12-3.285 1.77 0 3.15 1.47 3.15 3.315v.03c0 1.8-1.305 3.285-3.12 3.285zm6.18.51h.735v-4.425c0-1.59 1.155-2.73 2.655-2.73 1.545 0 2.43 1.035 2.43 2.61v4.545h.735v-4.68c0-1.83-1.125-3.15-3.06-3.15-1.395 0-2.25.705-2.76 1.605v-1.425h-.735v7.65zm12.42.18c1.47 0 2.385-.6 3.165-1.44l-.51-.45c-.63.675-1.44 1.2-2.625 1.2-1.5 0-2.865-1.11-3-3.015h6.345l.015-.3c0-2.265-1.365-4.005-3.51-4.005-2.07 0-3.63 1.77-3.63 3.99v.03c0 2.385 1.74 3.99 3.75 3.99zm-2.97-4.365c.135-1.695 1.305-2.97 2.82-2.97 1.755 0 2.64 1.425 2.745 2.97h-5.565z" sketch:type="MSShapeGroup" fill="#000"/></svg>