<?xml version="1.0" encoding="UTF-8" standalone="no"?>
<svg width="192px" height="15px" viewBox="0 0 192 15" version="1.1" xmlns="http://www.w3.org/2000/svg" xmlns:xlink="http://www.w3.org/1999/xlink" xmlns:sketch="http://www.bohemiancoding.com/sketch/ns">
    <!-- Generator: Sketch 3.3.2 (12043) - http://www.bohemiancoding.com/sketch -->
    <title>download</title>
    <desc>Created with Sketch.</desc>
    <defs></defs>
    <g id="Web" stroke="none" stroke-width="1" fill="none" fill-rule="evenodd" sketch:type="MSPage">
        <g id="Desktop-HD" sketch:type="MSArtboardGroup" transform="translate(-431.000000, -575.000000)" fill="#555A5F">
            <path d="M431.493652,576.431152 L431.493652,587 L434.972656,587 C438.202637,587 439.989746,585.000488 439.989746,581.711914 C439.989746,578.430664 438.195312,576.431152 434.972656,576.431152 L431.493652,576.431152 Z M432.49707,577.339355 L434.914062,577.339355 C437.492188,577.339355 438.964355,578.987305 438.964355,581.719238 C438.964355,584.451172 437.499512,586.091797 434.914062,586.091797 L432.49707,586.091797 L432.49707,577.339355 Z M445.336426,586.260254 C443.710449,586.260254 442.743652,585.051758 442.743652,583.052246 C442.743652,581.052734 443.710449,579.844238 445.336426,579.844238 C446.962402,579.844238 447.929199,581.052734 447.929199,583.052246 C447.929199,585.051758 446.962402,586.260254 445.336426,586.260254 L445.336426,586.260254 Z M445.336426,587.131836 C447.541016,587.131836 448.925293,585.571777 448.925293,583.052246 C448.925293,580.532715 447.541016,578.97998 445.336426,578.97998 C443.131836,578.97998 441.754883,580.532715 441.754883,583.052246 C441.754883,585.571777 443.131836,587.131836 445.336426,587.131836 L445.336426,587.131836 Z M460.468262,579.111816 L459.501465,579.111816 L457.736328,585.806152 L457.648438,585.806152 L455.700195,579.111816 L454.740723,579.111816 L452.79248,585.806152 L452.70459,585.806152 L450.954102,579.111816 L449.97998,579.111816 L452.213867,587 L453.224609,587 L455.165527,580.452148 L455.260742,580.452148 L457.20166,587 L458.219727,587 L460.468262,579.111816 Z M462.196777,587 L463.15625,587 L463.15625,582.3125 C463.15625,580.825684 464.123047,579.844238 465.602539,579.844238 C466.972168,579.844238 467.660645,580.613281 467.660645,582.114746 L467.660645,587 L468.620117,587 L468.620117,581.873047 C468.620117,580.034668 467.609375,578.97998 465.851562,578.97998 C464.599121,578.97998 463.625,579.558594 463.20752,580.532715 L463.112305,580.532715 L463.112305,579.111816 L462.196777,579.111816 L462.196777,587 Z M471.103027,587 L472.0625,587 L472.0625,575.969727 L471.103027,575.969727 L471.103027,587 Z M477.797363,586.260254 C476.171387,586.260254 475.20459,585.051758 475.20459,583.052246 C475.20459,581.052734 476.171387,579.844238 477.797363,579.844238 C479.42334,579.844238 480.390137,581.052734 480.390137,583.052246 C480.390137,585.051758 479.42334,586.260254 477.797363,586.260254 L477.797363,586.260254 Z M477.797363,587.131836 C480.001953,587.131836 481.38623,585.571777 481.38623,583.052246 C481.38623,580.532715 480.001953,578.97998 477.797363,578.97998 C475.592773,578.97998 474.21582,580.532715 474.21582,583.052246 C474.21582,585.571777 475.592773,587.131836 477.797363,587.131836 L477.797363,587.131836 Z M485.817383,586.282227 C484.755371,586.282227 483.986328,585.710938 483.986328,584.802734 C483.986328,583.901855 484.630859,583.403809 485.971191,583.308594 L488.307617,583.140137 L488.307617,584.062988 C488.307617,585.31543 487.230957,586.282227 485.817383,586.282227 L485.817383,586.282227 Z M485.65625,587.131836 C486.813477,587.131836 487.780273,586.58252 488.263672,585.64502 L488.351562,585.64502 L488.351562,587 L489.274414,587 L489.274414,581.587402 C489.274414,579.946777 488.227051,578.97998 486.374023,578.97998 C484.71875,578.97998 483.495605,579.807617 483.3125,581.060059 L484.286621,581.060059 C484.477051,580.29834 485.260742,579.836914 486.344727,579.836914 C487.626465,579.836914 488.307617,580.466797 488.307617,581.594727 L488.307617,582.356445 L485.839355,582.517578 C484.015625,582.64209 482.997559,583.44043 482.997559,584.817383 C482.997559,586.230957 484.11084,587.131836 485.65625,587.131836 L485.65625,587.131836 Z M494.643066,587.131836 C495.851562,587.131836 496.869629,586.47998 497.338379,585.425293 L497.42627,585.425293 L497.42627,587 L498.349121,587 L498.349121,575.969727 L497.389648,575.969727 L497.389648,580.649902 L497.301758,580.649902 C496.85498,579.617188 495.844238,578.97998 494.643066,578.97998 C492.643555,578.97998 491.303223,580.613281 491.303223,583.05957 C491.303223,585.505859 492.628906,587.131836 494.643066,587.131836 L494.643066,587.131836 Z M494.848145,579.844238 C496.393555,579.844238 497.404297,581.118652 497.404297,583.052246 C497.404297,585.000488 496.400879,586.260254 494.848145,586.260254 C493.288086,586.260254 492.291992,585.015137 492.291992,583.052246 C492.291992,581.09668 493.288086,579.844238 494.848145,579.844238 L494.848145,579.844238 Z M508.141602,586.260254 C506.515625,586.260254 505.548828,585.051758 505.548828,583.052246 C505.548828,581.052734 506.515625,579.844238 508.141602,579.844238 C509.767578,579.844238 510.734375,581.052734 510.734375,583.052246 C510.734375,585.051758 509.767578,586.260254 508.141602,586.260254 L508.141602,586.260254 Z M508.141602,587.131836 C510.346191,587.131836 511.730469,585.571777 511.730469,583.052246 C511.730469,580.532715 510.346191,578.97998 508.141602,578.97998 C505.937012,578.97998 504.560059,580.532715 504.560059,583.052246 C504.560059,585.571777 505.937012,587.131836 508.141602,587.131836 L508.141602,587.131836 Z M513.803223,587 L514.762695,587 L514.762695,582.3125 C514.762695,580.825684 515.729492,579.844238 517.208984,579.844238 C518.578613,579.844238 519.26709,580.613281 519.26709,582.114746 L519.26709,587 L520.226562,587 L520.226562,581.873047 C520.226562,580.034668 519.21582,578.97998 517.458008,578.97998 C516.205566,578.97998 515.231445,579.558594 514.813965,580.532715 L514.71875,580.532715 L514.71875,579.111816 L513.803223,579.111816 L513.803223,587 Z M527.191895,577.090332 L527.191895,579.111816 L525.91748,579.111816 L525.91748,579.924805 L527.191895,579.924805 L527.191895,585.037109 C527.191895,586.472656 527.79248,587.043945 529.30127,587.043945 C529.469727,587.043945 529.821289,587.021973 529.989746,586.992676 L529.989746,586.172363 C529.828613,586.187012 529.557617,586.194336 529.403809,586.194336 C528.517578,586.194336 528.151367,585.78418 528.151367,584.817383 L528.151367,579.924805 L530.026367,579.924805 L530.026367,579.111816 L528.151367,579.111816 L528.151367,577.090332 L527.191895,577.090332 Z M532.069824,587 L533.029297,587 L533.029297,582.3125 C533.029297,580.862305 534.010742,579.844238 535.504883,579.844238 C536.881836,579.844238 537.592285,580.62793 537.592285,582.114746 L537.592285,587 L538.551758,587 L538.551758,581.873047 C538.551758,580.049316 537.533691,578.97998 535.753906,578.97998 C534.501465,578.97998 533.541992,579.558594 533.117188,580.532715 L533.029297,580.532715 L533.029297,575.969727 L532.069824,575.969727 L532.069824,587 Z M544.081543,579.82959 C545.509766,579.82959 546.45459,580.891602 546.476562,582.517578 L541.562012,582.517578 C541.649902,580.891602 542.645996,579.82959 544.081543,579.82959 L544.081543,579.82959 Z M546.381348,585.051758 C546.044434,585.828125 545.23877,586.274902 544.118164,586.274902 C542.594727,586.274902 541.605957,585.132324 541.554688,583.352539 L541.554688,583.308594 L547.47998,583.308594 L547.47998,582.883789 C547.47998,580.474121 546.190918,578.97998 544.088867,578.97998 C541.942871,578.97998 540.565918,580.583984 540.565918,583.05957 C540.565918,585.549805 541.928223,587.131836 544.096191,587.131836 C545.751465,587.131836 546.967285,586.333496 547.355469,585.051758 L546.381348,585.051758 Z M560.773438,587 L562.157715,587 L558.26123,576.431152 L556.95752,576.431152 L553.061035,587 L554.445312,587 L555.507324,583.975098 L559.711426,583.975098 L560.773438,587 Z M557.550781,578.137695 L557.667969,578.137695 L559.323242,582.854492 L555.895508,582.854492 L557.550781,578.137695 Z M567.694824,578.965332 C566.618164,578.965332 565.67334,579.514648 565.167969,580.422852 L565.050781,580.422852 L565.050781,579.104492 L563.849609,579.104492 L563.849609,589.636719 L565.109375,589.636719 L565.109375,585.813477 L565.226562,585.813477 C565.658691,586.648438 566.566895,587.13916 567.694824,587.13916 C569.70166,587.13916 571.012695,585.520508 571.012695,583.052246 C571.012695,580.569336 569.708984,578.965332 567.694824,578.965332 L567.694824,578.965332 Z M567.394531,586.003906 C565.973633,586.003906 565.072754,584.861328 565.072754,583.052246 C565.072754,581.23584 565.973633,580.100586 567.401855,580.100586 C568.844727,580.100586 569.708984,581.206543 569.708984,583.052246 C569.708984,584.897949 568.844727,586.003906 567.394531,586.003906 L567.394531,586.003906 Z M576.835449,578.965332 C575.758789,578.965332 574.813965,579.514648 574.308594,580.422852 L574.191406,580.422852 L574.191406,579.104492 L572.990234,579.104492 L572.990234,589.636719 L574.25,589.636719 L574.25,585.813477 L574.367188,585.813477 C574.799316,586.648438 575.70752,587.13916 576.835449,587.13916 C578.842285,587.13916 580.15332,585.520508 580.15332,583.052246 C580.15332,580.569336 578.849609,578.965332 576.835449,578.965332 L576.835449,578.965332 Z M576.535156,586.003906 C575.114258,586.003906 574.213379,584.861328 574.213379,583.052246 C574.213379,581.23584 575.114258,580.100586 576.54248,580.100586 C577.985352,580.100586 578.849609,581.206543 578.849609,583.052246 C578.849609,584.897949 577.985352,586.003906 576.535156,586.003906 L576.535156,586.003906 Z M586.02002,584.23877 C586.15918,586.0625 587.70459,587.249023 589.945801,587.249023 C592.362793,587.249023 593.893555,586.01123 593.893555,584.070312 C593.893555,582.517578 593.014648,581.667969 590.824707,581.118652 L589.71875,580.825684 C588.26123,580.452148 587.682617,579.976074 587.682617,579.148438 C587.682617,578.079102 588.612793,577.375977 590.019043,577.375977 C591.337402,577.375977 592.230957,578.020508 592.414062,579.104492 L593.739746,579.104492 C593.629883,577.397949 592.106445,576.182129 590.062988,576.182129 C587.829102,576.182129 586.327637,577.397949 586.327637,579.192383 C586.327637,580.693848 587.155273,581.558105 589.066895,582.041504 L590.421875,582.393066 C591.879395,582.759277 592.538574,583.330566 592.538574,584.231445 C592.538574,585.278809 591.491211,586.047852 590.070312,586.047852 C588.568848,586.047852 587.51416,585.344727 587.353027,584.23877 L586.02002,584.23877 Z M596.449707,577.134277 L596.449707,579.104492 L595.124023,579.104492 L595.124023,580.15918 L596.449707,580.15918 L596.449707,584.949219 C596.449707,586.458008 597.101562,587.058594 598.727539,587.058594 C598.976562,587.058594 599.203613,587.029297 599.452637,586.985352 L599.452637,585.92334 C599.218262,585.945312 599.108398,585.952637 598.881348,585.952637 C598.061035,585.952637 597.709473,585.557129 597.709473,584.626953 L597.709473,580.15918 L599.540527,580.15918 L599.540527,579.104492 L597.709473,579.104492 L597.709473,577.134277 L596.449707,577.134277 Z M604.506348,586.003906 C603.012207,586.003906 602.169922,584.919922 602.169922,583.052246 C602.169922,581.177246 603.012207,580.100586 604.506348,580.100586 C606.000488,580.100586 606.842773,581.177246 606.842773,583.052246 C606.842773,584.919922 606.000488,586.003906 604.506348,586.003906 L604.506348,586.003906 Z M604.506348,587.13916 C606.754883,587.13916 608.146484,585.586426 608.146484,583.052246 C608.146484,580.510742 606.754883,578.965332 604.506348,578.965332 C602.257812,578.965332 600.866211,580.510742 600.866211,583.052246 C600.866211,585.586426 602.257812,587.13916 604.506348,587.13916 L604.506348,587.13916 Z M610.124023,587 L611.383789,587 L611.383789,582.107422 C611.383789,580.994141 612.255371,580.188477 613.456543,580.188477 C613.705566,580.188477 614.159668,580.232422 614.262207,580.261719 L614.262207,579.001953 C614.101074,578.97998 613.837402,578.965332 613.632324,578.965332 C612.584961,578.965332 611.676758,579.507324 611.442383,580.276367 L611.325195,580.276367 L611.325195,579.104492 L610.124023,579.104492 L610.124023,587 Z M618.766602,580.078613 C620.019043,580.078613 620.854004,581.001465 620.883301,582.400391 L616.532715,582.400391 C616.62793,581.001465 617.506836,580.078613 618.766602,580.078613 L618.766602,580.078613 Z M620.84668,584.956543 C620.51709,585.652344 619.828613,586.025879 618.810547,586.025879 C617.470215,586.025879 616.598633,585.037109 616.532715,583.477051 L616.532715,583.418457 L622.208984,583.418457 L622.208984,582.935059 C622.208984,580.481445 620.912598,578.965332 618.78125,578.965332 C616.613281,578.965332 615.22168,580.57666 615.22168,583.05957 C615.22168,585.557129 616.591309,587.13916 618.78125,587.13916 C620.509766,587.13916 621.725586,586.311523 622.106445,584.956543 L620.84668,584.956543 Z" id="download" sketch:type="MSShapeGroup"></path>
        </g>
    </g>
</svg>