<svg width="150" height="14" viewBox="0 0 150 14" xmlns="http://www.w3.org/2000/svg" xmlns:sketch="http://www.bohemiancoding.com/sketch/ns"><title>Email address here</title><desc>Created with Sketch.</desc><path d="M8.736 11.672c-.592.08-1.04.112-1.776.112h-5.072v-4.704h4.208c.832 0 1.248.032 1.792.112v-1.344c-.608.08-1.088.112-1.792.112h-4.208v-4.096h4.928c.8 0 1.232.032 1.792.112v-1.344c-.544.08-1.088.112-1.792.112h-4.56c-.768 0-1.2-.016-1.76-.048.096.704.128 1.136.128 1.824v8.528c0 .816-.032 1.296-.128 1.904.544-.032.992-.048 1.76-.048h4.688c.848 0 1.28.032 1.792.112v-1.344zm3.36 1.232c-.08-.64-.112-1.072-.112-1.808v-3.136c0-.416.24-1.168.528-1.6.496-.768 1.264-1.216 2.096-1.216 1.152 0 1.792.768 1.792 2.176v3.776c0 .816-.032 1.232-.112 1.808h1.44c-.08-.544-.112-.992-.112-1.792v-3.152c0-.48.224-1.184.528-1.648.464-.736 1.216-1.168 2.016-1.168 1.28 0 1.84.656 1.84 2.176v3.776c0 .848-.016 1.216-.112 1.808h1.44c-.08-.56-.112-.992-.112-1.792v-3.952c0-.944-.16-1.568-.544-2.08-.48-.64-1.28-.976-2.336-.976-1.344 0-2.208.512-2.96 1.744-.16-.48-.256-.672-.496-.928-.48-.544-1.152-.816-2.064-.816-.928 0-1.712.288-2.256.832-.32.336-.464.528-.608.8l.032-.576v-.88h-1.296c.08.576.112 1.008.112 1.808v5.008c0 .752-.032 1.232-.112 1.808h1.408zm19.184 0h1.296c-.096-.64-.128-1.04-.128-1.76v-4.496c0-1.728-1.088-2.624-3.2-2.624-1.2 0-2.16.304-2.816.912-.4.352-.608.688-.896 1.424l1.248.272c.16-.48.288-.704.496-.928.448-.464 1.104-.688 1.984-.688 1.328 0 2.016.56 2.016 1.648v.928c-1.968.048-2.736.144-3.68.416-1.488.416-2.288 1.344-2.288 2.624 0 1.52 1.072 2.432 2.832 2.432.544 0 1.12-.112 1.664-.32.544-.208.848-.416 1.472-.976v1.136zm0-3.328c0 .64-.128.976-.496 1.376-.624.688-1.632 1.136-2.56 1.136-1.04 0-1.696-.56-1.696-1.44 0-.768.4-1.312 1.216-1.648.72-.304 1.632-.416 3.536-.464v1.04zm3.488-8.832v1.424h1.552v-1.424h-1.552zm.048 3.536c.08.56.112 1.04.112 1.808v5.008c0 .672-.032 1.12-.112 1.808h1.44c-.08-.624-.112-1.072-.112-1.808v-5.008c0-.8.032-1.248.112-1.808h-1.44zm3.776-3.536c.08.576.112 1.008.112 1.792v8.576c0 .72-.032 1.216-.112 1.792h1.44c-.08-.64-.112-1.072-.112-1.792v-8.56c0-.8.032-1.232.112-1.808h-1.44zm14.736 12.16h1.296c-.096-.64-.128-1.04-.128-1.76v-4.496c0-1.728-1.088-2.624-3.2-2.624-1.2 0-2.16.304-2.816.912-.4.352-.608.688-.896 1.424l1.248.272c.16-.48.288-.704.496-.928.448-.464 1.104-.688 1.984-.688 1.328 0 2.016.56 2.016 1.648v.928c-1.968.048-2.736.144-3.68.416-1.488.416-2.288 1.344-2.288 2.624 0 1.52 1.072 2.432 2.832 2.432.544 0 1.12-.112 1.664-.32.544-.208.848-.416 1.472-.976v1.136zm0-3.328c0 .64-.128.976-.496 1.376-.624.688-1.632 1.136-2.56 1.136-1.04 0-1.696-.56-1.696-1.44 0-.768.4-1.312 1.216-1.648.72-.304 1.632-.416 3.536-.464v1.04zm10.272 3.328h1.28c-.08-.624-.112-1.04-.112-1.84v-8.512c0-.704.032-1.168.112-1.808h-1.408c.08.608.112 1.072.112 1.824v2.144c0 .368 0 .512.048.848l.016.24c-.704-1.104-1.824-1.696-3.28-1.696-2.4 0-3.936 1.744-3.936 4.48 0 2.784 1.504 4.48 3.968 4.48 1.456 0 2.496-.56 3.248-1.728-.032.272-.048.56-.048.784v.784zm-3.104-7.76c.848 0 1.616.304 2.176.848.576.56.896 1.488.896 2.544 0 2.112-1.2 3.472-3.072 3.472-.896 0-1.648-.336-2.144-.96-.416-.528-.656-1.44-.656-2.496 0-2.128 1.056-3.408 2.8-3.408zm13.44 7.76h1.28c-.08-.624-.112-1.04-.112-1.84v-8.512c0-.704.032-1.168.112-1.808h-1.408c.08.608.112 1.072.112 1.824v2.144c0 .368 0 .512.048.848l.016.24c-.704-1.104-1.824-1.696-3.28-1.696-2.4 0-3.936 1.744-3.936 4.48 0 2.784 1.504 4.48 3.968 4.48 1.456 0 2.496-.56 3.248-1.728-.032.272-.048.56-.048.784v.784zm-3.104-7.76c.848 0 1.616.304 2.176.848.576.56.896 1.488.896 2.544 0 2.112-1.2 3.472-3.072 3.472-.896 0-1.648-.336-2.144-.96-.416-.528-.656-1.44-.656-2.496 0-2.128 1.056-3.408 2.8-3.408zm12.208-.864c-.672-.112-.944-.144-1.424-.144-.768 0-1.312.16-1.92.56-.336.224-.576.48-.88.976.016-.112.016-.352.016-.48v-.912h-1.328c.08.576.112 1.008.112 1.808v5.008c0 .656-.032 1.072-.112 1.808h1.44c-.08-.624-.112-1.072-.112-1.792v-3.264c.064-.72.208-1.104.592-1.6.48-.64 1.152-.976 1.968-.976.4 0 .688.048 1.296.24l.352-1.232zm8.896 4.496c-.032-.432-.096-1.056-.112-1.232-.32-2.144-1.808-3.472-3.872-3.472-2.4 0-3.968 1.792-3.968 4.528 0 2.768 1.584 4.528 4.096 4.528 1.168 0 2.144-.384 2.896-1.12.368-.368.576-.656.88-1.328l-1.12-.448c-.448 1.232-1.344 1.872-2.64 1.872-.96 0-1.744-.384-2.256-1.088-.432-.576-.592-1.168-.64-2.24h6.736zm-6.688-1.008c.096-.608.176-.896.4-1.296.48-.896 1.296-1.392 2.272-1.392.768 0 1.392.24 1.888.72.512.496.752 1.072.848 1.968h-5.408zm8.08 2.8c.16.656.272.928.512 1.264.592.816 1.712 1.248 3.168 1.248 2.192 0 3.552-.992 3.552-2.592 0-.656-.272-1.264-.768-1.664-.48-.368-.992-.56-2.544-.912-.992-.208-1.408-.336-1.776-.544-.352-.192-.544-.512-.544-.88 0-.848.832-1.44 2-1.44.72 0 1.296.208 1.664.608.224.224.304.416.4.848l1.264-.208c-.208-.736-.432-1.104-.848-1.456-.576-.512-1.424-.768-2.512-.768-1.072 0-1.936.288-2.496.832-.448.432-.688.976-.688 1.552 0 .704.304 1.296.864 1.68.544.368 1.088.56 2.368.832 1.184.24 1.504.336 1.888.576.336.208.496.544.496.992 0 .944-.88 1.536-2.272 1.536-.816 0-1.456-.192-1.856-.56-.32-.288-.448-.576-.56-1.168l-1.312.224zm8.592 0c.16.656.272.928.512 1.264.592.816 1.712 1.248 3.168 1.248 2.192 0 3.552-.992 3.552-2.592 0-.656-.272-1.264-.768-1.664-.48-.368-.992-.56-2.544-.912-.992-.208-1.408-.336-1.776-.544-.352-.192-.544-.512-.544-.88 0-.848.832-1.44 2-1.44.72 0 1.296.208 1.664.608.224.224.304.416.4.848l1.264-.208c-.208-.736-.432-1.104-.848-1.456-.576-.512-1.424-.768-2.512-.768-1.072 0-1.936.288-2.496.832-.448.432-.688.976-.688 1.552 0 .704.304 1.296.864 1.68.544.368 1.088.56 2.368.832 1.184.24 1.504.336 1.888.576.336.208.496.544.496.992 0 .944-.88 1.536-2.272 1.536-.816 0-1.456-.192-1.856-.56-.32-.288-.448-.576-.56-1.168l-1.312.224zm15.808 2.336c-.08-.624-.112-1.104-.112-1.808v-3.072c.144-.672.352-1.104.8-1.68.624-.784 1.36-1.168 2.256-1.168 1.248 0 1.936.752 1.936 2.144v3.776c0 .8-.032 1.28-.112 1.808h1.44c-.08-.592-.112-1.056-.112-1.792v-4.016c0-1.872-1.12-2.976-2.992-2.976-.976 0-1.712.272-2.4.864-.384.32-.56.56-.88 1.088.048-.416.048-.544.048-.8v-2.704c0-.816.032-1.232.128-1.824h-1.424c.08.592.112 1.008.112 1.808v8.544c0 .8-.032 1.232-.112 1.808h1.424zm16-4.128c-.032-.432-.096-1.056-.112-1.232-.32-2.144-1.808-3.472-3.872-3.472-2.4 0-3.968 1.792-3.968 4.528 0 2.768 1.584 4.528 4.096 4.528 1.168 0 2.144-.384 2.896-1.12.368-.368.576-.656.88-1.328l-1.12-.448c-.448 1.232-1.344 1.872-2.64 1.872-.96 0-1.744-.384-2.256-1.088-.432-.576-.592-1.168-.64-2.24h6.736zm-6.688-1.008c.096-.608.176-.896.4-1.296.48-.896 1.296-1.392 2.272-1.392.768 0 1.392.24 1.888.72.512.496.752 1.072.848 1.968h-5.408zm14.08-3.488c-.672-.112-.944-.144-1.424-.144-.768 0-1.312.16-1.92.56-.336.224-.576.48-.88.976.016-.112.016-.352.016-.48v-.912h-1.328c.08.576.112 1.008.112 1.808v5.008c0 .656-.032 1.072-.112 1.808h1.44c-.08-.624-.112-1.072-.112-1.792v-3.264c.064-.72.208-1.104.592-1.6.48-.64 1.152-.976 1.968-.976.4 0 .688.048 1.296.24l.352-1.232zm8.896 4.496c-.032-.432-.096-1.056-.112-1.232-.32-2.144-1.808-3.472-3.872-3.472-2.4 0-3.968 1.792-3.968 4.528 0 2.768 1.584 4.528 4.096 4.528 1.168 0 2.144-.384 2.896-1.12.368-.368.576-.656.88-1.328l-1.12-.448c-.448 1.232-1.344 1.872-2.64 1.872-.96 0-1.744-.384-2.256-1.088-.432-.576-.592-1.168-.64-2.24h6.736zm-6.688-1.008c.096-.608.176-.896.4-1.296.48-.896 1.296-1.392 2.272-1.392.768 0 1.392.24 1.888.72.512.496.752 1.072.848 1.968h-5.408z" sketch:type="MSShapeGroup" fill="#9B9B9B"/></svg>