<svg width="162" height="17" viewBox="0 0 162 17" xmlns="http://www.w3.org/2000/svg"><title>Get notified by emai</title><path d="M8.904 7.896v3.216c-.944.608-1.968.896-3.232.896-1.264 0-2.256-.384-2.976-1.152-.88-.944-1.344-2.352-1.344-4.064 0-3.216 1.616-5.184 4.256-5.184 1.712 0 2.784.736 3.36 2.304l1.248-.416c-.352-.864-.64-1.328-1.168-1.824C8.2.888 7.048.488 5.624.488 2.216.488.04 2.936.04 6.792c0 2.16.72 4 1.968 5.104.928.8 2.128 1.184 3.648 1.184.816 0 1.712-.112 2.384-.304.736-.208 1.216-.432 2.176-.992-.096-.64-.112-1.024-.112-1.776V8.536c0-.736.016-1.136.112-1.808-.496.048-.944.064-1.696.064h-.464c-.864 0-1.264-.016-1.744-.096v1.296c.448-.08.816-.096 1.648-.096h.944zm11.056.88c-.032-.432-.096-1.056-.112-1.232-.32-2.144-1.808-3.472-3.872-3.472-2.4 0-3.968 1.792-3.968 4.528 0 2.768 1.584 4.528 4.096 4.528 1.168 0 2.144-.384 2.896-1.12.368-.368.576-.656.88-1.328l-1.12-.448c-.448 1.232-1.344 1.872-2.64 1.872-.96 0-1.744-.384-2.256-1.088-.432-.576-.592-1.168-.64-2.24h6.736zm-6.688-1.008c.096-.608.176-.896.4-1.296.48-.896 1.296-1.392 2.272-1.392.768 0 1.392.24 1.888.72.512.496.752 1.072.848 1.968h-5.408zm9.552-5.872c.08.528.112 1.136.112 1.776v.608h-.64c-.672 0-.992-.016-1.44-.096V5.4c.528-.064.896-.096 1.44-.096h.64v5.728c0 .752.128 1.216.448 1.536.32.32.864.496 1.568.496.656 0 1.152-.096 1.808-.368l-.352-1.12c-.528.32-.848.416-1.264.416-.336 0-.608-.096-.784-.272-.144-.144-.208-.384-.208-.848V5.304h.768c.72 0 1.12.016 1.632.096V4.184c-.56.08-.896.096-1.632.096h-.768v-.608c0-.688.032-1.264.112-1.776h-1.44zm12.032 11.008c-.08-.624-.112-1.104-.112-1.808V8.008c.128-.64.32-1.04.736-1.584.672-.864 1.392-1.264 2.288-1.264 1.264 0 1.952.768 1.952 2.208v3.728c0 .704-.032 1.184-.112 1.808h1.44c-.08-.528-.112-.976-.112-1.792V7.16c0-.784-.144-1.376-.448-1.84-.512-.784-1.408-1.2-2.56-1.2-1.44 0-2.48.624-3.232 1.936.048-.368.048-.496.048-.688V4.28h-1.328c.096.64.128 1.088.128 1.808v5.008c0 .768-.032 1.2-.128 1.808h1.44zm12.336.208c2.576 0 4.24-1.792 4.24-4.528 0-2.752-1.648-4.512-4.256-4.512-2.608 0-4.272 1.76-4.272 4.528s1.664 4.512 4.288 4.512zm.016-8.032c1.84 0 2.992 1.344 2.992 3.504s-1.152 3.488-3.024 3.488-3.04-1.328-3.04-3.504c0-2.16 1.168-3.488 3.072-3.488zm7.104-3.184c.08.528.112 1.136.112 1.776v.608h-.64c-.672 0-.992-.016-1.44-.096V5.4c.528-.064.896-.096 1.44-.096h.64v5.728c0 .752.128 1.216.448 1.536.32.32.864.496 1.568.496.656 0 1.152-.096 1.808-.368l-.352-1.12c-.528.32-.848.416-1.264.416-.336 0-.608-.096-.784-.272-.144-.144-.208-.384-.208-.848V5.304h.768c.72 0 1.12.016 1.632.096V4.184c-.56.08-.896.096-1.632.096h-.768v-.608c0-.688.032-1.264.112-1.776h-1.44zM59.56.744v1.424h1.552V.744H59.56zm.048 3.536c.08.56.112 1.04.112 1.808v5.008c0 .672-.032 1.12-.112 1.808h1.44c-.08-.624-.112-1.072-.112-1.808V6.088c0-.8.032-1.248.112-1.808h-1.44zm4.928 1.024v5.792c0 .672-.032 1.216-.112 1.808h1.44c-.08-.592-.112-1.04-.112-1.792V5.304h.8c.784 0 1.152.016 1.696.096V4.184c-.592.08-1.008.096-1.696.096h-.8V3.4c0-.752.064-1.088.24-1.344.208-.288.576-.432 1.088-.432.496 0 .896.112 1.328.368L68.744.92C68.168.696 67.672.6 67.048.6c-.896 0-1.632.288-2.016.784-.368.464-.496.976-.496 1.952v.944h-.656c-.64 0-1.024-.032-1.456-.096V5.4c.496-.064.896-.096 1.456-.096h.656zm4.96-4.56v1.424h1.552V.744h-1.552zm.048 3.536c.08.56.112 1.04.112 1.808v5.008c0 .672-.032 1.12-.112 1.808h1.44c-.08-.624-.112-1.072-.112-1.808V6.088c0-.8.032-1.248.112-1.808h-1.44zm11.312 4.496c-.032-.432-.096-1.056-.112-1.232-.32-2.144-1.808-3.472-3.872-3.472-2.4 0-3.968 1.792-3.968 4.528 0 2.768 1.584 4.528 4.096 4.528 1.168 0 2.144-.384 2.896-1.12.368-.368.576-.656.88-1.328l-1.12-.448c-.448 1.232-1.344 1.872-2.64 1.872-.96 0-1.744-.384-2.256-1.088-.432-.576-.592-1.168-.64-2.24h6.736zm-6.688-1.008c.096-.608.176-.896.4-1.296.48-.896 1.296-1.392 2.272-1.392.768 0 1.392.24 1.888.72.512.496.752 1.072.848 1.968h-5.408zm15.312 5.136h1.28c-.08-.624-.112-1.04-.112-1.84V2.552c0-.704.032-1.168.112-1.808h-1.408c.08.608.112 1.072.112 1.824v2.144c0 .368 0 .512.048.848l.016.24c-.704-1.104-1.824-1.696-3.28-1.696-2.4 0-3.936 1.744-3.936 4.48 0 2.784 1.504 4.48 3.968 4.48 1.456 0 2.496-.56 3.248-1.728-.032.272-.048.56-.048.784v.784zm-3.104-7.76c.848 0 1.616.304 2.176.848.576.56.896 1.488.896 2.544 0 2.112-1.2 3.472-3.072 3.472-.896 0-1.648-.336-2.144-.96-.416-.528-.656-1.44-.656-2.496 0-2.128 1.056-3.408 2.8-3.408zm13.28 7.76v-.896c0-.208-.016-.336-.048-.64.256.384.4.56.752.832.736.608 1.472.864 2.48.864 2.496 0 4-1.696 4-4.512 0-2.784-1.472-4.448-3.936-4.448-1.456 0-2.544.576-3.296 1.76.048-.416.064-.704.064-1.136v-2.16c0-.768.032-1.232.112-1.824h-1.408c.08.624.112 1.136.112 1.808v8.512c0 .768-.032 1.232-.112 1.84h1.28zm5.952-4.368c0 2.192-1.056 3.488-2.848 3.488-1.84 0-3.088-1.408-3.088-3.472 0-2.048 1.248-3.424 3.136-3.424 1.776 0 2.8 1.248 2.8 3.408zm5.936 4.112l-.736 1.76c-.256.592-.64.88-1.184.88-.304 0-.528-.064-.976-.272l-.336 1.184c.608.128.96.176 1.312.176 1.136 0 1.84-.464 2.256-1.488l3.584-8.736c.416-1.008.688-1.632.784-1.872h-1.488c-.064.448-.208.88-.528 1.696l-2.064 5.376-2.32-5.376c-.256-.608-.464-1.248-.544-1.696h-1.568c.16.288.16.288.88 1.872l2.928 6.496zm18.912-3.872c-.032-.432-.096-1.056-.112-1.232-.32-2.144-1.808-3.472-3.872-3.472-2.4 0-3.968 1.792-3.968 4.528 0 2.768 1.584 4.528 4.096 4.528 1.168 0 2.144-.384 2.896-1.12.368-.368.576-.656.88-1.328l-1.12-.448c-.448 1.232-1.344 1.872-2.64 1.872-.96 0-1.744-.384-2.256-1.088-.432-.576-.592-1.168-.64-2.24h6.736zm-6.688-1.008c.096-.608.176-.896.4-1.296.48-.896 1.296-1.392 2.272-1.392.768 0 1.392.24 1.888.72.512.496.752 1.072.848 1.968h-5.408zm9.952 5.136c-.08-.64-.112-1.072-.112-1.808V7.96c0-.416.24-1.168.528-1.6.496-.768 1.264-1.216 2.096-1.216 1.152 0 1.792.768 1.792 2.176v3.776c0 .816-.032 1.232-.112 1.808h1.44c-.08-.544-.112-.992-.112-1.792V7.96c0-.48.224-1.184.528-1.648.464-.736 1.216-1.168 2.016-1.168 1.28 0 1.84.656 1.84 2.176v3.776c0 .848-.016 1.216-.112 1.808h1.44c-.08-.56-.112-.992-.112-1.792V7.16c0-.944-.16-1.568-.544-2.08-.48-.64-1.28-.976-2.336-.976-1.344 0-2.208.512-2.96 1.744-.16-.48-.256-.672-.496-.928-.48-.544-1.152-.816-2.064-.816-.928 0-1.712.288-2.256.832-.32.336-.464.528-.608.8l.032-.576v-.88h-1.296c.08.576.112 1.008.112 1.808v5.008c0 .752-.032 1.232-.112 1.808h1.408zm19.184 0h1.296c-.096-.64-.128-1.04-.128-1.76V6.648c0-1.728-1.088-2.624-3.2-2.624-1.2 0-2.16.304-2.816.912-.4.352-.608.688-.896 1.424l1.248.272c.16-.48.288-.704.496-.928.448-.464 1.104-.688 1.984-.688 1.328 0 2.016.56 2.016 1.648v.928c-1.968.048-2.736.144-3.68.416-1.488.416-2.288 1.344-2.288 2.624 0 1.52 1.072 2.432 2.832 2.432.544 0 1.12-.112 1.664-.32.544-.208.848-.416 1.472-.976v1.136zm0-3.328c0 .64-.128.976-.496 1.376-.624.688-1.632 1.136-2.56 1.136-1.04 0-1.696-.56-1.696-1.44 0-.768.4-1.312 1.216-1.648.72-.304 1.632-.416 3.536-.464v1.04zm3.488-8.832v1.424h1.552V.744h-1.552zm.048 3.536c.08.56.112 1.04.112 1.808v5.008c0 .672-.032 1.12-.112 1.808h1.44c-.08-.624-.112-1.072-.112-1.808V6.088c0-.8.032-1.248.112-1.808h-1.44zm3.776-3.536c.08.576.112 1.008.112 1.792v8.576c0 .72-.032 1.216-.112 1.792h1.44c-.08-.64-.112-1.072-.112-1.792v-8.56c0-.8.032-1.232.112-1.808h-1.44z"/></svg>