<?xml version="1.0" encoding="UTF-8" standalone="no"?>
<svg width="351px" height="712px" viewBox="0 0 351 712" version="1.1" xmlns="http://www.w3.org/2000/svg" xmlns:xlink="http://www.w3.org/1999/xlink" xmlns:sketch="http://www.bohemiancoding.com/sketch/ns">
    <!-- Generator: Sketch 3.3.2 (12043) - http://www.bohemiancoding.com/sketch -->
    <title>iphone6</title>
    <desc>Created with Sketch.</desc>
    <defs>
        <filter x="-50%" y="-50%" width="200%" height="200%" filterUnits="objectBoundingBox" id="filter-1">
            <feOffset dx="0" dy="0" in="SourceAlpha" result="shadowOffsetOuter1"></feOffset>
            <feGaussianBlur stdDeviation="1" in="shadowOffsetOuter1" result="shadowBlurOuter1"></feGaussianBlur>
            <feColorMatrix values="0 0 0 0 0   0 0 0 0 0   0 0 0 0 0  0 0 0 0.35 0" in="shadowBlurOuter1" type="matrix" result="shadowMatrixOuter1"></feColorMatrix>
            <feMerge>
                <feMergeNode in="shadowMatrixOuter1"></feMergeNode>
                <feMergeNode in="SourceGraphic"></feMergeNode>
            </feMerge>
        </filter>
    </defs>
    <g id="Web" stroke="none" stroke-width="1" fill="none" fill-rule="evenodd" sketch:type="MSPage">
        <g id="Desktop-HD" sketch:type="MSArtboardGroup" transform="translate(-733.000000, -156.000000)" filter="url(#filter-1)" fill="#FFFFFF">
            <g id="iPhone-6-wireframe-Copy" sketch:type="MSLayerGroup" transform="translate(735.000000, 157.000000)">
                <path d="M347.066298,203.705804 L347.066298,658.776348 C347.066298,686.554022 324.556077,709.065217 296.786188,709.065217 L53.1475138,709.065217 C25.3853591,709.065217 2.86740331,686.550152 2.86740331,658.776348 L2.86740331,51.2236522 C2.86740331,23.4459783 25.3776243,0.934782609 53.1475138,0.934782609 L296.786188,0.934782609 C324.548343,0.934782609 347.066298,23.4498478 347.066298,51.2236522 L347.066298,152.232848 C346.596409,152.583043 346.292818,153.142196 346.292818,153.769065 L346.292818,202.165717 C346.292818,202.796457 346.594475,203.355609 347.066298,203.705804 Z M0.429834254,152.805543 L0.429834254,206.021739 L0.429834254,206.521739 L1.42983425,206.521739 L1.42983425,206.021739 L1.42983425,152.805543 L1.42983425,152.305543 L0.429834254,152.305543 L0.429834254,152.805543 Z M1.40055249,90.7880217 L1.40055249,118.103283 L1.40055249,118.603283 L2.40055249,118.603283 L2.40055249,118.103283 L2.40055249,90.7880217 L2.40055249,90.2880217 L1.40055249,90.2880217 L1.40055249,90.7880217 M0.429834254,215.715 L0.429834254,269.708978 L0.429834254,270.208978 L1.42983425,270.208978 L1.42983425,269.708978 L1.42983425,215.715 L1.42983425,215.215 L0.429834254,215.215 L0.429834254,215.715 Z M174.966851,685.847826 C187.781492,685.847826 198.171271,675.452239 198.171271,662.630435 C198.171271,649.80863 187.781492,639.413043 174.966851,639.413043 C162.15221,639.413043 151.762431,649.80863 151.762431,662.630435 C151.762431,675.452239 162.15221,685.847826 174.966851,685.847826 Z M174.966851,689.717391 C189.918232,689.717391 202.038674,677.590174 202.038674,662.630435 C202.038674,647.670696 189.918232,635.543478 174.966851,635.543478 C160.01547,635.543478 147.895028,647.670696 147.895028,662.630435 C147.895028,677.590174 160.01547,689.717391 174.966851,689.717391 Z M149.81326,41.5652174 C147.686188,41.5652174 145.961326,43.2833043 145.961326,45.4347826 C145.961326,47.5727174 147.69779,49.3043478 149.81326,49.3043478 L200.120442,49.3043478 C202.247514,49.3043478 203.972376,47.5862609 203.972376,45.4347826 C203.972376,43.2968478 202.235912,41.5652174 200.120442,41.5652174 L149.81326,41.5652174 Z" id="iphone6" sketch:type="MSShapeGroup"></path>
            </g>
        </g>
    </g>
</svg>