<?xml version="1.0" encoding="UTF-8" standalone="no"?>
<svg width="405px" height="845px" viewBox="0 0 405 845" version="1.1" xmlns="http://www.w3.org/2000/svg" xmlns:xlink="http://www.w3.org/1999/xlink" xmlns:sketch="http://www.bohemiancoding.com/sketch/ns">
    <!-- Generator: Sketch 3.3.2 (12043) - http://www.bohemiancoding.com/sketch -->
    <title>iphone</title>
    <desc>Created with Sketch.</desc>
    <defs></defs>
    <g id="Page-1" stroke="none" stroke-width="1" fill="none" fill-rule="evenodd" sketch:type="MSPage">
        <g id="iphone" sketch:type="MSLayerGroup" transform="translate(202.000000, 422.500000) rotate(9.000000) translate(-202.000000, -422.500000) translate(-55.000000, -18.000000)">
            <g id="front" fill-opacity="0.13" fill="#C6C6C7" sketch:type="MSShapeGroup">
                <path d="M357.201,1.982 C349.07,0.176 340.025,0.039 330.314,1.576 L52.413,45.536 C42.702,47.072 34.141,49.994 26.968,54.221 C20.162,58.231 14.584,63.431 10.388,69.678 C1.968,82.211 -0.874,98.976 2.168,118.161 L114.404,825.909 C117.446,845.093 125.336,860.161 137.221,869.482 C143.145,874.128 150.059,877.352 157.772,879.065 C165.902,880.871 174.948,881.008 184.659,879.472 L462.56,835.511 C472.27,833.975 480.831,831.053 488.005,826.826 C494.81,822.816 500.389,817.616 504.585,811.37 C513.004,798.836 515.847,782.071 512.804,762.886 L400.569,55.139 C397.527,35.954 389.637,20.887 377.751,11.565 C371.828,6.919 364.914,3.695 357.201,1.982 L357.201,1.982 Z" id="path-1"></path>
            </g>
            <g id="home-btn" transform="translate(262.000000, 757.000000)" fill-opacity="0.05" fill="#0F0F10" sketch:type="MSShapeGroup">
                <path d="M28.935,0.413 C10.805,3.281 -1.607,20.358 1.267,38.482 C4.141,56.605 21.229,69.016 39.36,66.148 C57.491,63.28 69.903,46.202 67.029,28.079 C64.154,9.955 47.066,-2.456 28.935,0.413 L28.935,0.413 Z M38.561,61.11 C23.209,63.538 8.74,53.029 6.307,37.684 C3.873,22.339 14.383,7.879 29.734,5.451 C45.086,3.022 59.555,13.531 61.988,28.876 C64.422,44.221 53.912,58.681 38.561,61.11 L38.561,61.11 Z" id="path-2"></path>
            </g>
            <g id="micro" transform="translate(146.000000, 43.000000)" fill-opacity="0.05" fill="#2D2C2D" sketch:type="MSShapeGroup">
                <path d="M67.208,3.955 C67.545,6.076 66.075,8.071 63.926,8.411 L4.977,17.736 C2.828,18.076 0.813,16.632 0.476,14.511 L0.476,14.511 C0.14,12.39 1.61,10.395 3.759,10.055 L62.708,0.73 C64.857,0.39 66.872,1.834 67.208,3.955 L67.208,3.955 L67.208,3.955 Z" id="path-3"></path>
            </g>
        </g>
    </g>
</svg>