<svg width="158" height="15" viewBox="0 0 158 15" xmlns="http://www.w3.org/2000/svg"><title>or follow @ZeeenApp</title><path d="M4.047 11.21c-1.734 0-2.766-1.288-2.766-3.42s1.037-3.423 2.77-3.423 2.77 1.29 2.77 3.423-1.03 3.42-2.766 3.42zm0 .93c2.352 0 3.828-1.663 3.828-4.35 0-2.69-1.477-4.345-3.828-4.345C1.695 3.445.227 5.1.227 7.79c0 2.687 1.47 4.35 3.82 4.35zm6.04-.14h1.022V6.75c0-1.328.963-2.313 2.27-2.313.302 0 .724.047.91.102V3.51c-.226-.055-.507-.07-.79-.07-1.115 0-2.06.61-2.342 1.523h-.1v-1.38h-.978V12zm10.78 0h1.023V4.453h1.984v-.867H21.89V2.68c0-.992.492-1.47 1.352-1.47.258 0 .516.024.71.07V.415c-.288-.055-.507-.078-.765-.078-1.492 0-2.32.727-2.32 2.32v.93h-1.36v.867h1.36V12zm8.055-.79c-1.734 0-2.766-1.288-2.766-3.42s1.03-3.423 2.766-3.423c1.734 0 2.766 1.29 2.766 3.422s-1.03 3.42-2.766 3.42zm0 .93c2.352 0 3.828-1.663 3.828-4.35 0-2.69-1.477-4.345-3.828-4.345-2.352 0-3.82 1.656-3.82 4.344 0 2.682 1.47 4.35 3.82 4.35zM35.04 12h1.022V.234H35.04V12zm3.82 0h1.022V.234H38.86V12zm7.14-.79c-1.734 0-2.766-1.288-2.766-3.42S44.264 4.366 46 4.366c1.734 0 2.766 1.29 2.766 3.422s-1.03 3.42-2.766 3.42zm0 .93c2.352 0 3.828-1.663 3.828-4.35 0-2.69-1.477-4.345-3.828-4.345-2.352 0-3.82 1.656-3.82 4.344 0 2.682 1.47 4.35 3.82 4.35zm16.14-8.554h-1.03l-1.883 7.14h-.094l-2.078-7.14h-1.023l-2.078 7.14h-.094l-1.867-7.14h-1.04L53.338 12h1.078l2.07-6.984h.102L58.658 12h1.085l2.398-8.414zm12.11 1.336c1.156 0 1.89.93 1.89 2.398 0 1.492-.74 2.46-1.897 2.46-1.148 0-1.89-.944-1.89-2.42 0-1.47.757-2.44 1.897-2.44zM74.5.797c-3.79 0-6.43 2.664-6.43 6.484 0 3.96 2.57 6.537 6.508 6.537 1.016 0 1.945-.125 2.602-.344V12.7c-.523.21-1.523.343-2.594.343-3.406 0-5.664-2.28-5.664-5.727 0-3.336 2.32-5.742 5.508-5.742 3.234 0 5.46 2.048 5.46 5.024 0 2.04-.655 3.297-1.726 3.297-.71 0-1.102-.405-1.102-1.155V4.242h-.906v1.102h-.102c-.297-.766-1.063-1.258-1.938-1.258-1.602 0-2.727 1.336-2.727 3.25 0 1.96 1.103 3.297 2.72 3.297.946 0 1.673-.492 2.024-1.383h.1c.087.86.798 1.438 1.767 1.438 1.696 0 2.743-1.555 2.743-4.078 0-3.43-2.564-5.813-6.25-5.813zM82.688 12h8.22v-.97h-6.814v-.093l6.72-9.43v-.78h-7.9v.968h6.517v.094l-6.74 9.432V12zm13.64-7.648c1.524 0 2.532 1.133 2.556 2.867h-5.242c.094-1.74 1.156-2.87 2.688-2.87zm2.454 5.57c-.36.828-1.22 1.305-2.414 1.305-1.625 0-2.68-1.22-2.734-3.117v-.047h6.32V7.61c0-2.57-1.375-4.164-3.617-4.164-2.29 0-3.758 1.71-3.758 4.352 0 2.656 1.45 4.344 3.76 4.344 1.766 0 3.063-.852 3.477-2.22h-1.04zm6.72-5.57c1.522 0 2.53 1.133 2.554 2.867h-5.242c.094-1.74 1.156-2.87 2.688-2.87zm2.452 5.57c-.36.828-1.22 1.305-2.414 1.305-1.625 0-2.68-1.22-2.734-3.117v-.047h6.32V7.61c0-2.57-1.375-4.164-3.617-4.164-2.29 0-3.76 1.71-3.76 4.352 0 2.656 1.45 4.344 3.762 4.344 1.766 0 3.063-.852 3.477-2.22h-1.04zm6.72-5.57c1.522 0 2.53 1.133 2.554 2.867h-5.242c.094-1.74 1.156-2.87 2.688-2.87zm2.452 5.57c-.36.828-1.22 1.305-2.414 1.305-1.625 0-2.68-1.22-2.734-3.117v-.047h6.32V7.61c0-2.57-1.375-4.164-3.617-4.164-2.283 0-3.752 1.71-3.752 4.352 0 2.656 1.453 4.344 3.766 4.344 1.766 0 3.063-.852 3.477-2.22h-1.04zm3.39 2.078h1.024V7c0-1.586 1.03-2.633 2.61-2.633 1.46 0 2.194.82 2.194 2.422V12h1.023V6.53c0-1.96-1.078-3.085-2.953-3.085-1.336 0-2.375.617-2.82 1.656h-.102V3.59h-.977V12zm17.048 0h1.125L134.472.727h-1.063L129.193 12h1.137l1.25-3.453h4.73L137.56 12zm-3.672-9.875h.102l2 5.5H131.9l1.992-5.5zm10.648 1.32c-1.28 0-2.367.71-2.883 1.86h-.094v-1.72h-.977V14.74h1.023v-4.343h.09c.47 1.086 1.53 1.742 2.834 1.742 2.124 0 3.538-1.74 3.538-4.358s-1.406-4.344-3.54-4.344zm-.227 7.766c-1.64 0-2.734-1.353-2.734-3.42s1.09-3.42 2.74-3.42c1.652 0 2.7 1.33 2.7 3.43 0 2.096-1.048 3.416-2.71 3.416zm9.93-7.76c-1.28 0-2.367.71-2.883 1.86h-.094V3.59h-.977v11.15h1.02v-4.343h.09c.47 1.086 1.53 1.742 2.837 1.742 2.125 0 3.54-1.74 3.54-4.358s-1.407-4.344-3.54-4.344zm-.227 7.766c-1.64 0-2.734-1.358-2.734-3.42s1.094-3.423 2.742-3.423c1.656 0 2.703 1.328 2.703 3.43 0 2.094-1.047 3.414-2.71 3.414z"/></svg>