<svg width="117" height="14" viewBox="0 0 117 14" xmlns="http://www.w3.org/2000/svg"><title>required</title><path d="M1.58 1.97h2.482c1.436 0 2.31.786 2.31 2.078 0 1.32-.84 2.078-2.27 2.078h-2.52V1.97zm0 4.99h2.667L6.517 11H7.61L5.22 6.81c1.32-.35 2.112-1.395 2.112-2.79 0-1.756-1.23-2.884-3.15-2.884H.644V11h.937V6.96zm10.57-2.652c1.332 0 2.214.99 2.234 2.51H9.797c.082-1.52 1.012-2.51 2.352-2.51zm2.145 4.874c-.314.725-1.066 1.142-2.112 1.142-1.422 0-2.345-1.066-2.393-2.728v-.04h5.53v-.397c0-2.25-1.203-3.645-3.165-3.645-2.003 0-3.288 1.497-3.288 3.808 0 2.324 1.27 3.8 3.295 3.8 1.545 0 2.68-.744 3.042-1.94h-.91zm5.708-5.667c-1.866 0-3.11 1.518-3.11 3.8 0 2.29 1.237 3.81 3.11 3.81 1.128 0 2.017-.562 2.475-1.525h.082v3.8h.91V3.64h-.87v1.503h-.08c-.425-.99-1.402-1.627-2.517-1.627zm.178 6.795c-1.448 0-2.364-1.162-2.364-2.994 0-1.825.923-2.994 2.372-2.994 1.45 0 2.4 1.19 2.4 2.994 0 1.812-.95 2.994-2.407 2.994zm11.54-6.672h-.896v4.375c0 1.395-.882 2.29-2.263 2.29-1.257 0-1.947-.73-1.947-2.105v-4.56h-.896v4.785c0 1.688.978 2.7 2.618 2.7 1.176 0 2.078-.533 2.447-1.45h.082V11h.854V3.638zM34.072 11h.896V3.638h-.896V11zm.444-9.003c.37 0 .67-.3.67-.67 0-.362-.3-.663-.67-.663-.362 0-.663.3-.663.663 0 .37.3.67.663.67zM37.312 11h.896V6.406c0-1.162.848-2.023 1.99-2.023.266 0 .635.04.8.09v-.897c-.2-.048-.445-.062-.69-.062-.98 0-1.806.533-2.052 1.333h-.09v-1.21h-.853V11zm7.91-6.692c1.332 0 2.214.99 2.234 2.51H42.87c.08-1.52 1.01-2.51 2.35-2.51zm2.145 4.874c-.314.725-1.066 1.142-2.112 1.142-1.422 0-2.345-1.066-2.393-2.728v-.04h5.53v-.397c0-2.25-1.203-3.645-3.165-3.645-2.003 0-3.288 1.497-3.288 3.808 0 2.324 1.27 3.8 3.294 3.8 1.545 0 2.68-.744 3.042-1.94h-.91zm5.715 1.94c1.128 0 2.078-.607 2.516-1.592h.082V11h.86V.705h-.895v4.368h-.082c-.417-.964-1.36-1.56-2.48-1.56-1.867 0-3.118 1.525-3.118 3.81 0 2.282 1.237 3.8 3.117 3.8zm.19-6.8c1.443 0 2.387 1.188 2.387 2.993 0 1.818-.938 2.994-2.387 2.994-1.456 0-2.386-1.163-2.386-2.995 0-1.825.93-2.994 2.386-2.994zM62.75 11h.896V3.638h-.896V11zm.444-9.003c.37 0 .67-.3.67-.67 0-.362-.3-.663-.67-.663-.362 0-.663.3-.663.663 0 .37.3.67.662.67zM70.172.93C67.42.93 65.7 2.908 65.7 6.066c0 3.15 1.688 5.14 4.47 5.14 2.776 0 4.458-1.995 4.458-5.14 0-3.15-1.688-5.134-4.457-5.134zm0 .87c2.16 0 3.5 1.653 3.5 4.265 0 2.598-1.334 4.272-3.5 4.272-2.182 0-3.515-1.675-3.515-4.272 0-2.61 1.36-4.266 3.514-4.266zm6.117 6.637c.115 1.647 1.585 2.77 3.622 2.77 2.16 0 3.575-1.156 3.575-2.88 0-1.394-.834-2.2-2.87-2.706l-.98-.245C78.135 5 77.528 4.5 77.528 3.64c0-1.074.977-1.854 2.392-1.854 1.366 0 2.316.71 2.467 1.764h.943C83.227 2.046 81.833.932 79.946.932c-2.003 0-3.377 1.142-3.377 2.734 0 1.34.778 2.112 2.63 2.57l1.13.287c1.523.376 2.2.978 2.2 1.907 0 1.094-1.06 1.92-2.536 1.92-1.504 0-2.632-.778-2.762-1.913h-.943zm16.2 2.77c2.07 0 3.5-1.17 3.5-2.865 0-1.278-.868-2.29-2.153-2.522v-.082c1.073-.26 1.764-1.12 1.764-2.194 0-1.53-1.29-2.61-3.11-2.61-1.817 0-3.11 1.086-3.11 2.61 0 1.08.698 1.94 1.772 2.194v.082C89.86 6.052 89 7.064 89 8.342c0 1.688 1.428 2.864 3.492 2.864zm0-.808c-1.51 0-2.55-.87-2.55-2.12 0-1.217 1.04-2.058 2.55-2.058 1.518 0 2.557.834 2.557 2.058 0 1.25-1.046 2.12-2.557 2.12zm0-4.984c-1.3 0-2.188-.73-2.188-1.798 0-1.114.89-1.88 2.188-1.88 1.3 0 2.188.766 2.188 1.88 0 1.073-.89 1.798-2.188 1.798zm5.96 5.653c.41 0 .753-.343.753-.753 0-.417-.342-.752-.752-.752-.416 0-.758.335-.758.752 0 .41.342.752.76.752zm2.824-7.213v.007h.91v-.007c.013-1.244.895-2.105 2.166-2.105 1.21 0 2.146.854 2.146 1.955 0 .848-.35 1.436-1.723 2.912l-3.445 3.725V11h6.35v-.847h-5.003v-.082l2.666-2.843c1.62-1.73 2.093-2.53 2.093-3.555 0-1.552-1.326-2.74-3.063-2.74-1.784 0-3.083 1.223-3.097 2.925zm12.223 3.568h3.028v-.78h-3.028V3.584h-.786v3.063h-3.034v.78h3.035v3.116h.787V7.425z" opacity=".5"/></svg>