<svg width="117" height="14" viewBox="0 0 117 14" xmlns="http://www.w3.org/2000/svg" xmlns:sketch="http://www.bohemiancoding.com/sketch/ns"><title>required</title><desc>Created with Sketch.</desc><path d="M1.581 1.97h2.481c1.436 0 2.311.786 2.311 2.078 0 1.319-.841 2.078-2.27 2.078h-2.522v-4.156zm0 4.99h2.666l2.27 4.04h1.094l-2.393-4.19c1.319-.349 2.112-1.395 2.112-2.789 0-1.757-1.23-2.885-3.151-2.885h-3.534v9.864h.937v-4.04zm10.568-2.652c1.333 0 2.215.991 2.235 2.509h-4.587c.082-1.518 1.012-2.509 2.352-2.509zm2.146 4.874c-.314.725-1.066 1.142-2.112 1.142-1.422 0-2.345-1.066-2.393-2.728v-.041h5.53v-.396c0-2.249-1.203-3.644-3.165-3.644-2.003 0-3.288 1.497-3.288 3.808 0 2.324 1.271 3.801 3.295 3.801 1.545 0 2.68-.745 3.042-1.941h-.909zm5.708-5.667c-1.866 0-3.11 1.518-3.11 3.801 0 2.29 1.237 3.808 3.11 3.808 1.128 0 2.017-.561 2.475-1.524h.082v3.801h.909v-9.762h-.868v1.504h-.082c-.424-.991-1.401-1.627-2.516-1.627zm.178 6.795c-1.449 0-2.365-1.162-2.365-2.994 0-1.825.923-2.994 2.372-2.994 1.449 0 2.399 1.189 2.399 2.994 0 1.812-.95 2.994-2.406 2.994zm11.539-6.672h-.896v4.375c0 1.395-.882 2.29-2.263 2.29-1.258 0-1.948-.731-1.948-2.105v-4.56h-.896v4.785c0 1.688.978 2.7 2.618 2.7 1.176 0 2.078-.533 2.447-1.449h.082v1.326h.854v-7.362zm2.352 7.362h.896v-7.362h-.896v7.362zm.444-9.003c.369 0 .67-.301.67-.67 0-.362-.301-.663-.67-.663-.362 0-.663.301-.663.663 0 .369.301.67.663.67zm2.796 9.003h.896v-4.594c0-1.162.848-2.023 1.989-2.023.267 0 .636.041.8.089v-.896c-.198-.048-.444-.062-.69-.062-.978 0-1.805.533-2.051 1.333h-.089v-1.21h-.854v7.362zm7.909-6.692c1.333 0 2.215.991 2.235 2.509h-4.587c.082-1.518 1.012-2.509 2.352-2.509zm2.146 4.874c-.314.725-1.066 1.142-2.112 1.142-1.422 0-2.345-1.066-2.393-2.728v-.041h5.53v-.396c0-2.249-1.203-3.644-3.165-3.644-2.003 0-3.288 1.497-3.288 3.808 0 2.324 1.271 3.801 3.295 3.801 1.545 0 2.68-.745 3.042-1.941h-.909zm5.715 1.941c1.128 0 2.078-.608 2.516-1.593h.082v1.47h.861v-10.295h-.896v4.368h-.082c-.417-.964-1.36-1.559-2.481-1.559-1.866 0-3.117 1.524-3.117 3.808 0 2.283 1.237 3.801 3.117 3.801zm.191-6.802c1.442 0 2.386 1.189 2.386 2.994 0 1.818-.937 2.994-2.386 2.994-1.456 0-2.386-1.162-2.386-2.994 0-1.825.93-2.994 2.386-2.994zm9.475 6.679h.896v-7.362h-.896v7.362zm.444-9.003c.369 0 .67-.301.67-.67 0-.362-.301-.663-.67-.663-.362 0-.663.301-.663.663 0 .369.301.67.663.67zm6.979-1.066c-2.748 0-4.471 1.976-4.471 5.134 0 3.151 1.688 5.141 4.471 5.141 2.775 0 4.457-1.996 4.457-5.141 0-3.151-1.688-5.134-4.457-5.134zm0 .868c2.16 0 3.5 1.654 3.5 4.266 0 2.598-1.333 4.272-3.5 4.272-2.181 0-3.514-1.675-3.514-4.272 0-2.611 1.36-4.266 3.514-4.266zm6.118 6.638c.116 1.647 1.586 2.769 3.623 2.769 2.16 0 3.575-1.155 3.575-2.878 0-1.395-.834-2.201-2.871-2.707l-.978-.246c-1.504-.376-2.112-.875-2.112-1.736 0-1.073.978-1.853 2.393-1.853 1.367 0 2.317.711 2.468 1.764h.943c-.103-1.504-1.497-2.618-3.384-2.618-2.003 0-3.377 1.142-3.377 2.734 0 1.34.779 2.112 2.632 2.57l1.128.287c1.524.376 2.201.978 2.201 1.907 0 1.094-1.06 1.921-2.536 1.921-1.504 0-2.632-.779-2.762-1.914h-.943zm16.201 2.769c2.071 0 3.5-1.169 3.5-2.864 0-1.278-.868-2.29-2.153-2.522v-.082c1.073-.26 1.764-1.121 1.764-2.194 0-1.531-1.292-2.611-3.11-2.611-1.818 0-3.11 1.087-3.11 2.611 0 1.08.697 1.941 1.771 2.194v.082c-1.292.232-2.153 1.244-2.153 2.522 0 1.688 1.429 2.864 3.493 2.864zm0-.807c-1.511 0-2.55-.868-2.55-2.119 0-1.217 1.039-2.058 2.55-2.058 1.518 0 2.557.834 2.557 2.058 0 1.251-1.046 2.119-2.557 2.119zm0-4.983c-1.299 0-2.188-.731-2.188-1.798 0-1.114.889-1.88 2.188-1.88 1.299 0 2.188.766 2.188 1.88 0 1.073-.889 1.798-2.188 1.798zm5.961 5.653c.41 0 .752-.342.752-.752 0-.417-.342-.752-.752-.752-.417 0-.759.335-.759.752 0 .41.342.752.759.752zm2.823-7.212v.007h.909v-.007c.014-1.244.896-2.105 2.167-2.105 1.21 0 2.146.854 2.146 1.955 0 .848-.349 1.436-1.723 2.912l-3.445 3.726v.656h6.351v-.848h-5.004v-.082l2.666-2.844c1.62-1.729 2.092-2.529 2.092-3.555 0-1.552-1.326-2.741-3.063-2.741-1.784 0-3.083 1.224-3.097 2.926zm12.223 3.568h3.028v-.779h-3.028v-3.063h-.786v3.063h-3.035v.779h3.035v3.117h.786v-3.117z" sketch:type="MSShapeGroup" fill="#000" opacity=".5"/></svg>