<?xml version="1.0" encoding="UTF-8" standalone="no"?>
<svg width="117px" height="14px" viewBox="0 0 117 14" version="1.1" xmlns="http://www.w3.org/2000/svg" xmlns:xlink="http://www.w3.org/1999/xlink" xmlns:sketch="http://www.bohemiancoding.com/sketch/ns">
    <!-- Generator: Sketch 3.3.2 (12043) - http://www.bohemiancoding.com/sketch -->
    <title>required</title>
    <desc>Created with Sketch.</desc>
    <defs></defs>
    <g id="Web" stroke="none" stroke-width="1" fill="none" fill-rule="evenodd" sketch:type="MSPage">
        <g id="Desktop-HD" sketch:type="MSArtboardGroup" transform="translate(-454.000000, -624.000000)" fill="#000000" opacity="0.499708489">
            <path d="M455.580566,625.969727 L458.062012,625.969727 C459.497559,625.969727 460.372559,626.755859 460.372559,628.047852 C460.372559,629.367188 459.531738,630.125977 458.103027,630.125977 L455.580566,630.125977 L455.580566,625.969727 Z M455.580566,630.959961 L458.103027,630.959961 L458.246582,630.959961 L460.516113,635 L461.609863,635 L459.217285,630.80957 C460.536621,630.460938 461.32959,629.415039 461.32959,628.020508 C461.32959,626.263672 460.099121,625.135742 458.178223,625.135742 L454.644043,625.135742 L454.644043,635 L455.580566,635 L455.580566,630.959961 Z M466.148926,628.307617 C467.481934,628.307617 468.36377,629.298828 468.384277,630.816406 L463.797363,630.816406 C463.879395,629.298828 464.809082,628.307617 466.148926,628.307617 L466.148926,628.307617 Z M468.29541,633.181641 C467.980957,633.90625 467.229004,634.323242 466.183105,634.323242 C464.76123,634.323242 463.838379,633.256836 463.790527,631.595703 L463.790527,631.554688 L469.320801,631.554688 L469.320801,631.158203 C469.320801,628.90918 468.117676,627.514648 466.155762,627.514648 C464.152832,627.514648 462.867676,629.011719 462.867676,631.322266 C462.867676,633.646484 464.13916,635.123047 466.162598,635.123047 C467.70752,635.123047 468.842285,634.37793 469.20459,633.181641 L468.29541,633.181641 Z M474.003418,627.514648 C472.137207,627.514648 470.893066,629.032227 470.893066,631.31543 C470.893066,633.605469 472.130371,635.123047 474.003418,635.123047 C475.131348,635.123047 476.02002,634.5625 476.478027,633.598633 L476.560059,633.598633 L476.560059,637.399414 L477.469238,637.399414 L477.469238,627.637695 L476.601074,627.637695 L476.601074,629.141602 L476.519043,629.141602 C476.095215,628.150391 475.117676,627.514648 474.003418,627.514648 L474.003418,627.514648 Z M474.181152,634.30957 C472.731934,634.30957 471.815918,633.147461 471.815918,631.31543 C471.815918,629.490234 472.73877,628.321289 474.187988,628.321289 C475.637207,628.321289 476.587402,629.510742 476.587402,631.31543 C476.587402,633.126953 475.637207,634.30957 474.181152,634.30957 L474.181152,634.30957 Z M485.720215,627.637695 L484.824707,627.637695 L484.824707,632.012695 C484.824707,633.407227 483.942871,634.302734 482.562012,634.302734 C481.304199,634.302734 480.61377,633.571289 480.61377,632.197266 L480.61377,627.637695 L479.718262,627.637695 L479.718262,632.422852 C479.718262,634.111328 480.695801,635.123047 482.336426,635.123047 C483.512207,635.123047 484.414551,634.589844 484.783691,633.673828 L484.865723,633.673828 L484.865723,635 L485.720215,635 L485.720215,627.637695 Z M488.071777,635 L488.967285,635 L488.967285,627.637695 L488.071777,627.637695 L488.071777,635 Z M488.516113,625.99707 C488.885254,625.99707 489.186035,625.696289 489.186035,625.327148 C489.186035,624.964844 488.885254,624.664062 488.516113,624.664062 C488.153809,624.664062 487.853027,624.964844 487.853027,625.327148 C487.853027,625.696289 488.153809,625.99707 488.516113,625.99707 L488.516113,625.99707 Z M491.312012,635 L492.20752,635 L492.20752,630.40625 C492.20752,629.244141 493.055176,628.382812 494.196777,628.382812 C494.463379,628.382812 494.83252,628.423828 494.996582,628.47168 L494.996582,627.576172 C494.79834,627.52832 494.552246,627.514648 494.306152,627.514648 C493.328613,627.514648 492.501465,628.047852 492.255371,628.847656 L492.166504,628.847656 L492.166504,627.637695 L491.312012,627.637695 L491.312012,635 Z M499.221191,628.307617 C500.554199,628.307617 501.436035,629.298828 501.456543,630.816406 L496.869629,630.816406 C496.95166,629.298828 497.881348,628.307617 499.221191,628.307617 L499.221191,628.307617 Z M501.367676,633.181641 C501.053223,633.90625 500.30127,634.323242 499.255371,634.323242 C497.833496,634.323242 496.910645,633.256836 496.862793,631.595703 L496.862793,631.554688 L502.393066,631.554688 L502.393066,631.158203 C502.393066,628.90918 501.189941,627.514648 499.228027,627.514648 C497.225098,627.514648 495.939941,629.011719 495.939941,631.322266 C495.939941,633.646484 497.211426,635.123047 499.234863,635.123047 C500.779785,635.123047 501.914551,634.37793 502.276855,633.181641 L501.367676,633.181641 Z M507.08252,635.123047 C508.210449,635.123047 509.160645,634.514648 509.598145,633.530273 L509.680176,633.530273 L509.680176,635 L510.541504,635 L510.541504,624.705078 L509.645996,624.705078 L509.645996,629.073242 L509.563965,629.073242 C509.146973,628.109375 508.203613,627.514648 507.08252,627.514648 C505.216309,627.514648 503.965332,629.039062 503.965332,631.322266 C503.965332,633.605469 505.202637,635.123047 507.08252,635.123047 L507.08252,635.123047 Z M507.273926,628.321289 C508.716309,628.321289 509.659668,629.510742 509.659668,631.31543 C509.659668,633.133789 508.723145,634.30957 507.273926,634.30957 C505.817871,634.30957 504.888184,633.147461 504.888184,631.31543 C504.888184,629.490234 505.817871,628.321289 507.273926,628.321289 L507.273926,628.321289 Z M516.748535,635 L517.644043,635 L517.644043,627.637695 L516.748535,627.637695 L516.748535,635 Z M517.192871,625.99707 C517.562012,625.99707 517.862793,625.696289 517.862793,625.327148 C517.862793,624.964844 517.562012,624.664062 517.192871,624.664062 C516.830566,624.664062 516.529785,624.964844 516.529785,625.327148 C516.529785,625.696289 516.830566,625.99707 517.192871,625.99707 L517.192871,625.99707 Z M524.172363,624.930664 C521.424316,624.930664 519.70166,626.90625 519.70166,630.064453 C519.70166,633.21582 521.390137,635.205078 524.172363,635.205078 C526.947754,635.205078 528.629395,633.208984 528.629395,630.064453 C528.629395,626.913086 526.940918,624.930664 524.172363,624.930664 L524.172363,624.930664 Z M524.172363,625.798828 C526.33252,625.798828 527.672363,627.453125 527.672363,630.064453 C527.672363,632.662109 526.339355,634.336914 524.172363,634.336914 C521.991699,634.336914 520.658691,632.662109 520.658691,630.064453 C520.658691,627.453125 522.019043,625.798828 524.172363,625.798828 L524.172363,625.798828 Z M530.290527,632.436523 C530.406738,634.083984 531.876465,635.205078 533.913574,635.205078 C536.07373,635.205078 537.48877,634.049805 537.48877,632.327148 C537.48877,630.932617 536.654785,630.125977 534.617676,629.620117 L533.640137,629.374023 C532.13623,628.998047 531.527832,628.499023 531.527832,627.637695 C531.527832,626.564453 532.505371,625.785156 533.92041,625.785156 C535.287598,625.785156 536.237793,626.496094 536.388184,627.548828 L537.331543,627.548828 C537.229004,626.044922 535.834473,624.930664 533.947754,624.930664 C531.944824,624.930664 530.570801,626.072266 530.570801,627.665039 C530.570801,629.004883 531.350098,629.777344 533.202637,630.235352 L534.330566,630.522461 C535.85498,630.898438 536.531738,631.5 536.531738,632.429688 C536.531738,633.523438 535.472168,634.350586 533.995605,634.350586 C532.491699,634.350586 531.36377,633.571289 531.233887,632.436523 L530.290527,632.436523 Z M546.491699,635.205078 C548.562988,635.205078 549.991699,634.036133 549.991699,632.34082 C549.991699,631.0625 549.123535,630.050781 547.838379,629.818359 L547.838379,629.736328 C548.911621,629.476562 549.602051,628.615234 549.602051,627.541992 C549.602051,626.010742 548.310059,624.930664 546.491699,624.930664 C544.67334,624.930664 543.381348,626.017578 543.381348,627.541992 C543.381348,628.62207 544.078613,629.483398 545.151855,629.736328 L545.151855,629.818359 C543.859863,630.050781 542.998535,631.0625 542.998535,632.34082 C542.998535,634.029297 544.427246,635.205078 546.491699,635.205078 L546.491699,635.205078 Z M546.491699,634.398438 C544.980957,634.398438 543.941895,633.530273 543.941895,632.279297 C543.941895,631.0625 544.980957,630.22168 546.491699,630.22168 C548.009277,630.22168 549.04834,631.055664 549.04834,632.279297 C549.04834,633.530273 548.002441,634.398438 546.491699,634.398438 L546.491699,634.398438 Z M546.491699,629.415039 C545.192871,629.415039 544.304199,628.683594 544.304199,627.617188 C544.304199,626.50293 545.192871,625.737305 546.491699,625.737305 C547.790527,625.737305 548.679199,626.50293 548.679199,627.617188 C548.679199,628.69043 547.790527,629.415039 546.491699,629.415039 L546.491699,629.415039 Z M552.452637,635.068359 C552.862793,635.068359 553.20459,634.726562 553.20459,634.316406 C553.20459,633.899414 552.862793,633.564453 552.452637,633.564453 C552.035645,633.564453 551.693848,633.899414 551.693848,634.316406 C551.693848,634.726562 552.035645,635.068359 552.452637,635.068359 L552.452637,635.068359 Z M555.275879,627.856445 L555.275879,627.863281 L556.185059,627.863281 L556.185059,627.856445 C556.19873,626.612305 557.080566,625.750977 558.352051,625.750977 C559.562012,625.750977 560.498535,626.605469 560.498535,627.706055 C560.498535,628.553711 560.149902,629.141602 558.775879,630.618164 L555.330566,634.34375 L555.330566,635 L561.681152,635 L561.681152,634.152344 L556.677246,634.152344 L556.677246,634.070312 L559.343262,631.226562 C560.963379,629.49707 561.435059,628.697266 561.435059,627.671875 C561.435059,626.120117 560.108887,624.930664 558.372559,624.930664 C556.588379,624.930664 555.289551,626.154297 555.275879,627.856445 L555.275879,627.856445 Z M567.498535,631.424805 L570.526855,631.424805 L570.526855,630.645508 L567.498535,630.645508 L567.498535,627.583008 L566.712402,627.583008 L566.712402,630.645508 L563.677246,630.645508 L563.677246,631.424805 L566.712402,631.424805 L566.712402,634.541992 L567.498535,634.541992 L567.498535,631.424805 Z" id="required" sketch:type="MSShapeGroup"></path>
        </g>
    </g>
</svg>