<svg width="120" height="14" viewBox="0 0 120 14" xmlns="http://www.w3.org/2000/svg"><title>required</title><path d="M1.2 1.97h2.483c1.435 0 2.31.786 2.31 2.078 0 1.32-.84 2.078-2.27 2.078H1.202V1.97zm0 4.99h2.667L6.137 11H7.23L4.838 6.81c1.32-.35 2.112-1.395 2.112-2.79 0-1.756-1.23-2.884-3.15-2.884H.264V11H1.2V6.96zm10.57-2.652c1.333 0 2.214.99 2.235 2.508H9.418C9.5 5.3 10.43 4.308 11.77 4.308zm2.146 4.874c-.314.724-1.066 1.14-2.112 1.14-1.422 0-2.345-1.065-2.393-2.726v-.04h5.53v-.398c0-2.25-1.202-3.643-3.164-3.643-2.003 0-3.288 1.497-3.288 3.807 0 2.324 1.272 3.8 3.295 3.8 1.545 0 2.68-.744 3.042-1.94h-.91zm5.708-5.667c-1.866 0-3.11 1.517-3.11 3.8 0 2.29 1.237 3.808 3.11 3.808 1.128 0 2.017-.56 2.475-1.524h.08v3.8h.91V3.637h-.868v1.504h-.082c-.424-.992-1.402-1.627-2.516-1.627zm.178 6.795c-1.45 0-2.365-1.163-2.365-2.995 0-1.825.922-2.994 2.372-2.994 1.448 0 2.398 1.19 2.398 2.995 0 1.812-.95 2.995-2.406 2.995zm11.54-6.672h-.897v4.375c0 1.394-.882 2.29-2.262 2.29-1.258 0-1.95-.732-1.95-2.106v-4.56h-.894v4.786c0 1.688.976 2.7 2.617 2.7 1.176 0 2.078-.533 2.447-1.45h.082V11h.855V3.638zM33.69 11h.896V3.638h-.896V11zm.445-9.003c.37 0 .67-.3.67-.67 0-.362-.3-.663-.67-.663-.363 0-.663.3-.663.663 0 .37.3.67.663.67zM36.933 11h.895V6.406c0-1.162.848-2.023 1.99-2.023.266 0 .635.04.8.09v-.897c-.2-.048-.445-.06-.69-.06-.98 0-1.806.532-2.052 1.332h-.09v-1.21h-.853V11zm7.91-6.692c1.332 0 2.214.99 2.234 2.508H42.49c.082-1.517 1.012-2.508 2.352-2.508zm2.145 4.874c-.314.724-1.066 1.14-2.112 1.14-1.422 0-2.345-1.065-2.393-2.726v-.04h5.53v-.398c0-2.25-1.202-3.643-3.164-3.643-2.004 0-3.29 1.497-3.29 3.807 0 2.324 1.272 3.8 3.295 3.8 1.545 0 2.68-.744 3.042-1.94h-.91zm5.715 1.94c1.128 0 2.078-.607 2.516-1.592h.08V11h.862V.705h-.895v4.368h-.082c-.417-.964-1.36-1.558-2.482-1.558-1.866 0-3.117 1.524-3.117 3.807s1.237 3.8 3.117 3.8zm.192-6.8c1.442 0 2.385 1.19 2.385 2.993 0 1.82-.936 2.995-2.385 2.995-1.457 0-2.386-1.163-2.386-2.995 0-1.825.928-2.994 2.385-2.994zM62.37 11h.895V3.638h-.896V11zm.443-9.003c.37 0 .67-.3.67-.67 0-.362-.3-.663-.67-.663-.362 0-.663.3-.663.663 0 .37.3.67.663.67zM69.793.93c-2.748 0-4.47 1.976-4.47 5.134 0 3.152 1.688 5.14 4.47 5.14 2.775 0 4.457-1.995 4.457-5.14 0-3.15-1.688-5.133-4.457-5.133zm0 .87c2.16 0 3.5 1.653 3.5 4.264 0 2.598-1.333 4.273-3.5 4.273-2.18 0-3.514-1.675-3.514-4.273 0-2.61 1.36-4.265 3.513-4.265zm6.118 6.637c.117 1.647 1.587 2.768 3.624 2.768 2.16 0 3.575-1.155 3.575-2.878 0-1.394-.835-2.2-2.872-2.707l-.977-.246c-1.503-.376-2.112-.875-2.112-1.736 0-1.074.978-1.853 2.393-1.853 1.368 0 2.318.71 2.47 1.764h.942C82.85 2.044 81.455.93 79.568.93c-2.003 0-3.377 1.142-3.377 2.735 0 1.34.78 2.112 2.633 2.57l1.128.287c1.526.376 2.202.978 2.202 1.908 0 1.093-1.06 1.92-2.536 1.92-1.504 0-2.632-.78-2.762-1.913h-.943zm15.97 2.76c2.358 0 3.725-1.995 3.725-5.338 0-1.258-.218-2.27-.656-3.036C94.333 1.6 93.28.93 91.947.93c-1.975 0-3.397 1.436-3.397 3.398 0 1.88 1.368 3.268 3.255 3.268 1.292 0 2.385-.725 2.81-1.812h.04c.007.07.048.157.04.226-.067 2.76-1.058 4.354-2.8 4.354-1.136 0-1.97-.677-2.21-1.68h-.956c.28 1.523 1.49 2.514 3.15 2.514zm.075-4.415c-1.45 0-2.46-1.053-2.46-2.48 0-1.444 1.06-2.544 2.467-2.544 1.415 0 2.488 1.135 2.488 2.597 0 1.36-1.08 2.427-2.495 2.427zm5.824 4.286c.41 0 .75-.34.75-.752 0-.417-.34-.752-.75-.752-.418 0-.76.335-.76.752 0 .41.342.752.76.752zm5.728.137c2.18 0 3.466-1.9 3.466-5.127 0-3.22-1.3-5.147-3.466-5.147-2.18 0-3.487 1.922-3.487 5.134 0 3.234 1.293 5.14 3.488 5.14zm0-.82c-1.607 0-2.543-1.586-2.543-4.32 0-2.708.943-4.307 2.543-4.307 1.593 0 2.53 1.586 2.53 4.306 0 2.735-.93 4.32-2.53 4.32zm13.07-2.96h3.028v-.78h-3.028V3.584h-.786v3.063h-3.035v.78h3.035v3.116h.786V7.425z" opacity=".5" fill="#000" fill-rule="evenodd"/></svg>