<svg width="66" height="12" viewBox="0 0 66 12" xmlns="http://www.w3.org/2000/svg"><title>Subscribe</title><path d="M.905 8.437c.116 1.647 1.586 2.77 3.623 2.77 2.16 0 3.575-1.156 3.575-2.88 0-1.394-.834-2.2-2.87-2.706l-.98-.245C2.75 5 2.144 4.5 2.144 3.64c0-1.074.977-1.854 2.392-1.854 1.367 0 2.317.71 2.468 1.764h.943C7.843 2.046 6.45.932 4.562.932c-2.003 0-3.377 1.142-3.377 2.734 0 1.34.78 2.112 2.632 2.57l1.128.287c1.524.376 2.2.978 2.2 1.907 0 1.094-1.06 1.92-2.535 1.92-1.504 0-2.632-.778-2.762-1.913H.905zm15.087-4.8h-.896v4.376c0 1.395-.882 2.29-2.263 2.29-1.258 0-1.948-.73-1.948-2.105v-4.56H9.99v4.785c0 1.688.977 2.7 2.617 2.7 1.176 0 2.078-.533 2.447-1.45h.082V11h.854V3.638zm5.838 7.486c1.86 0 3.097-1.524 3.097-3.808 0-2.297-1.23-3.8-3.097-3.8-1.114 0-2.07.594-2.48 1.55h-.083V.706h-.896V11h.855V9.53h.09c.437.99 1.387 1.593 2.515 1.593zm-.185-6.802c1.45 0 2.358 1.156 2.358 2.988 0 1.84-.91 3-2.358 3s-2.4-1.182-2.4-2.993c0-1.812.95-2.994 2.4-2.994zm5.045 1.266c0 1.04.643 1.6 2.01 1.928l1.114.267c.984.233 1.442.61 1.442 1.252 0 .772-.813 1.326-1.894 1.326-1.066 0-1.77-.465-1.97-1.203h-.93c.15 1.21 1.266 1.97 2.872 1.97s2.844-.89 2.844-2.16c0-1.067-.69-1.642-2.112-1.983l-1.012-.24c-.984-.23-1.463-.58-1.463-1.188 0-.738.787-1.27 1.75-1.27.98 0 1.662.45 1.826 1.14h.882c-.164-1.168-1.217-1.906-2.7-1.906s-2.66.89-2.66 2.07zm13.37.22c-.218-1.286-1.332-2.29-3.02-2.29-2.03 0-3.315 1.476-3.315 3.78 0 2.337 1.292 3.827 3.322 3.827 1.682 0 2.782-.923 3.008-2.242h-.91c-.225.903-1.018 1.43-2.104 1.43-1.455 0-2.392-1.176-2.392-3.015 0-1.818.93-2.974 2.393-2.974 1.13 0 1.888.637 2.113 1.484h.91zM41.92 11h.896V6.406c0-1.162.848-2.023 1.99-2.023.266 0 .635.04.8.09v-.897c-.2-.048-.445-.062-.69-.062-.98 0-1.806.533-2.052 1.333h-.09v-1.21h-.853V11zm5.29 0h.897V3.638h-.896V11zm.445-9.003c.37 0 .67-.3.67-.67 0-.362-.3-.663-.67-.663-.362 0-.663.3-.663.663 0 .37.3.67.663.67zm6.323 9.126c1.86 0 3.097-1.524 3.097-3.808 0-2.297-1.23-3.8-3.097-3.8-1.114 0-2.07.594-2.48 1.55h-.083V.706h-.896V11h.853V9.53h.09c.437.99 1.387 1.593 2.515 1.593zm-.185-6.802c1.45 0 2.358 1.156 2.358 2.988 0 1.84-.908 3-2.357 3s-2.4-1.182-2.4-2.993c0-1.812.95-2.994 2.4-2.994zm8.128-.013c1.334 0 2.216.99 2.236 2.51H59.57c.08-1.52 1.01-2.51 2.35-2.51zm2.147 4.874c-.314.726-1.066 1.143-2.112 1.143-1.422 0-2.345-1.066-2.393-2.728v-.04h5.53v-.397c0-2.25-1.203-3.644-3.165-3.644-2.003 0-3.288 1.497-3.288 3.808 0 2.324 1.27 3.8 3.294 3.8 1.545 0 2.68-.744 3.042-1.94h-.91z"/></svg>