<svg width="66" height="12" viewBox="0 0 66 12" xmlns="http://www.w3.org/2000/svg" xmlns:sketch="http://www.bohemiancoding.com/sketch/ns"><title>Subscribe</title><desc>Created with Sketch.</desc><path d="M.905 8.437c.116 1.647 1.586 2.769 3.623 2.769 2.16 0 3.575-1.155 3.575-2.878 0-1.395-.834-2.201-2.871-2.707l-.978-.246c-1.504-.376-2.112-.875-2.112-1.736 0-1.073.978-1.853 2.393-1.853 1.367 0 2.317.711 2.468 1.764h.943c-.103-1.504-1.497-2.618-3.384-2.618-2.003 0-3.377 1.142-3.377 2.734 0 1.34.779 2.112 2.632 2.57l1.128.287c1.524.376 2.201.978 2.201 1.907 0 1.094-1.06 1.921-2.536 1.921-1.504 0-2.632-.779-2.762-1.914h-.943zm15.087-4.799h-.896v4.375c0 1.395-.882 2.29-2.263 2.29-1.258 0-1.948-.731-1.948-2.105v-4.56h-.896v4.785c0 1.688.978 2.7 2.618 2.7 1.176 0 2.078-.533 2.447-1.449h.082v1.326h.854v-7.362zm5.838 7.485c1.859 0 3.097-1.524 3.097-3.808 0-2.297-1.23-3.801-3.097-3.801-1.114 0-2.071.595-2.481 1.552h-.082v-4.361h-.896v10.295h.854v-1.47h.089c.438.991 1.388 1.593 2.516 1.593zm-.185-6.802c1.449 0 2.358 1.155 2.358 2.987 0 1.839-.909 3.001-2.358 3.001s-2.399-1.183-2.399-2.994c0-1.812.95-2.994 2.399-2.994zm5.045 1.265c0 1.039.643 1.6 2.01 1.928l1.114.267c.984.232 1.442.608 1.442 1.251 0 .772-.813 1.326-1.894 1.326-1.066 0-1.771-.465-1.969-1.203h-.93c.15 1.21 1.265 1.969 2.871 1.969s2.844-.889 2.844-2.16c0-1.066-.69-1.641-2.112-1.982l-1.012-.239c-.984-.232-1.463-.581-1.463-1.189 0-.738.786-1.271 1.75-1.271.978 0 1.661.451 1.825 1.142h.882c-.164-1.169-1.217-1.907-2.7-1.907s-2.659.889-2.659 2.071zm13.371.219c-.219-1.285-1.333-2.29-3.021-2.29-2.03 0-3.315 1.477-3.315 3.78 0 2.338 1.292 3.828 3.322 3.828 1.682 0 2.782-.923 3.008-2.242h-.909c-.226.902-1.019 1.429-2.105 1.429-1.456 0-2.393-1.176-2.393-3.015 0-1.818.93-2.974 2.393-2.974 1.128 0 1.887.636 2.112 1.483h.909zm1.859 5.195h.896v-4.594c0-1.162.848-2.023 1.989-2.023.267 0 .636.041.8.089v-.896c-.198-.048-.444-.062-.69-.062-.978 0-1.805.533-2.051 1.333h-.089v-1.21h-.854v7.362zm5.291 0h.896v-7.362h-.896v7.362zm.444-9.003c.369 0 .67-.301.67-.67 0-.362-.301-.663-.67-.663-.362 0-.663.301-.663.663 0 .369.301.67.663.67zm6.323 9.126c1.859 0 3.097-1.524 3.097-3.808 0-2.297-1.23-3.801-3.097-3.801-1.114 0-2.071.595-2.481 1.552h-.082v-4.361h-.896v10.295h.854v-1.47h.089c.438.991 1.388 1.593 2.516 1.593zm-.185-6.802c1.449 0 2.358 1.155 2.358 2.987 0 1.839-.909 3.001-2.358 3.001s-2.399-1.183-2.399-2.994c0-1.812.95-2.994 2.399-2.994zm8.128-.014c1.333 0 2.215.991 2.235 2.509h-4.587c.082-1.518 1.012-2.509 2.352-2.509zm2.146 4.874c-.314.725-1.066 1.142-2.112 1.142-1.422 0-2.345-1.066-2.393-2.728v-.041h5.53v-.396c0-2.249-1.203-3.644-3.165-3.644-2.003 0-3.288 1.497-3.288 3.808 0 2.324 1.271 3.801 3.295 3.801 1.545 0 2.68-.745 3.042-1.941h-.909z" sketch:type="MSShapeGroup" fill="#000"/></svg>