<?xml version="1.0" encoding="UTF-8" standalone="no"?>
<svg width="90px" height="15px" viewBox="0 0 90 15" version="1.1" xmlns="http://www.w3.org/2000/svg" xmlns:xlink="http://www.w3.org/1999/xlink" xmlns:sketch="http://www.bohemiancoding.com/sketch/ns">
    <!-- Generator: Sketch 3.3.2 (12043) - http://www.bohemiancoding.com/sketch -->
    <title>twitter-acount</title>
    <desc>Created with Sketch.</desc>
    <defs></defs>
    <g id="Web" stroke="none" stroke-width="1" fill="none" fill-rule="evenodd" sketch:type="MSPage">
        <g id="Desktop-HD" sketch:type="MSArtboardGroup" transform="translate(-468.000000, -662.000000)" fill="#000000">
            <path d="M474.417969,666.921875 C475.574219,666.921875 476.308594,667.851562 476.308594,669.320312 C476.308594,670.8125 475.566406,671.78125 474.410156,671.78125 C473.261719,671.78125 472.519531,670.835938 472.519531,669.359375 C472.519531,667.890625 473.277344,666.921875 474.417969,666.921875 L474.417969,666.921875 Z M474.667969,662.796875 C470.878906,662.796875 468.238281,665.460938 468.238281,669.28125 C468.238281,673.234375 470.808594,675.8125 474.746094,675.8125 C475.761719,675.8125 476.691406,675.6875 477.347656,675.46875 L477.347656,674.695312 C476.824219,674.90625 475.824219,675.039062 474.753906,675.039062 C471.347656,675.039062 469.089844,672.757812 469.089844,669.3125 C469.089844,665.976562 471.410156,663.570312 474.597656,663.570312 C477.832031,663.570312 480.058594,665.617188 480.058594,668.59375 C480.058594,670.632812 479.402344,671.890625 478.332031,671.890625 C477.621094,671.890625 477.230469,671.484375 477.230469,670.734375 L477.230469,666.242188 L476.324219,666.242188 L476.324219,667.34375 L476.222656,667.34375 C475.925781,666.578125 475.160156,666.085938 474.285156,666.085938 C472.683594,666.085938 471.558594,667.421875 471.558594,669.335938 C471.558594,671.296875 472.667969,672.632812 474.285156,672.632812 C475.230469,672.632812 475.957031,672.140625 476.308594,671.25 L476.410156,671.25 C476.496094,672.109375 477.207031,672.6875 478.175781,672.6875 C479.871094,672.6875 480.917969,671.132812 480.917969,668.609375 C480.917969,665.179688 478.355469,662.796875 474.667969,662.796875 L474.667969,662.796875 Z M482.855469,674 L491.074219,674 L491.074219,673.03125 L484.261719,673.03125 L484.261719,672.9375 L490.980469,663.507812 L490.980469,662.726562 L483.082031,662.726562 L483.082031,663.695312 L489.597656,663.695312 L489.597656,663.789062 L482.855469,673.226562 L482.855469,674 Z M496.496094,666.351562 C498.019531,666.351562 499.027344,667.484375 499.050781,669.21875 L493.808594,669.21875 C493.902344,667.484375 494.964844,666.351562 496.496094,666.351562 L496.496094,666.351562 Z M498.949219,671.921875 C498.589844,672.75 497.730469,673.226562 496.535156,673.226562 C494.910156,673.226562 493.855469,672.007812 493.800781,670.109375 L493.800781,670.0625 L500.121094,670.0625 L500.121094,669.609375 C500.121094,667.039062 498.746094,665.445312 496.503906,665.445312 C494.214844,665.445312 492.746094,667.15625 492.746094,669.796875 C492.746094,672.453125 494.199219,674.140625 496.511719,674.140625 C498.277344,674.140625 499.574219,673.289062 499.988281,671.921875 L498.949219,671.921875 Z M505.667969,666.351562 C507.191406,666.351562 508.199219,667.484375 508.222656,669.21875 L502.980469,669.21875 C503.074219,667.484375 504.136719,666.351562 505.667969,666.351562 L505.667969,666.351562 Z M508.121094,671.921875 C507.761719,672.75 506.902344,673.226562 505.707031,673.226562 C504.082031,673.226562 503.027344,672.007812 502.972656,670.109375 L502.972656,670.0625 L509.292969,670.0625 L509.292969,669.609375 C509.292969,667.039062 507.917969,665.445312 505.675781,665.445312 C503.386719,665.445312 501.917969,667.15625 501.917969,669.796875 C501.917969,672.453125 503.371094,674.140625 505.683594,674.140625 C507.449219,674.140625 508.746094,673.289062 509.160156,671.921875 L508.121094,671.921875 Z M514.839844,666.351562 C516.363281,666.351562 517.371094,667.484375 517.394531,669.21875 L512.152344,669.21875 C512.246094,667.484375 513.308594,666.351562 514.839844,666.351562 L514.839844,666.351562 Z M517.292969,671.921875 C516.933594,672.75 516.074219,673.226562 514.878906,673.226562 C513.253906,673.226562 512.199219,672.007812 512.144531,670.109375 L512.144531,670.0625 L518.464844,670.0625 L518.464844,669.609375 C518.464844,667.039062 517.089844,665.445312 514.847656,665.445312 C512.558594,665.445312 511.089844,667.15625 511.089844,669.796875 C511.089844,672.453125 512.542969,674.140625 514.855469,674.140625 C516.621094,674.140625 517.917969,673.289062 518.332031,671.921875 L517.292969,671.921875 Z M520.683594,674 L521.707031,674 L521.707031,669 C521.707031,667.414062 522.738281,666.367188 524.316406,666.367188 C525.777344,666.367188 526.511719,667.1875 526.511719,668.789062 L526.511719,674 L527.535156,674 L527.535156,668.53125 C527.535156,666.570312 526.457031,665.445312 524.582031,665.445312 C523.246094,665.445312 522.207031,666.0625 521.761719,667.101562 L521.660156,667.101562 L521.660156,665.585938 L520.683594,665.585938 L520.683594,674 Z M537.730469,674 L538.855469,674 L534.644531,662.726562 L533.582031,662.726562 L529.363281,674 L530.496094,674 L531.746094,670.546875 L536.480469,670.546875 L537.730469,674 Z M534.058594,664.125 L534.160156,664.125 L536.160156,669.625 L532.066406,669.625 L534.058594,664.125 Z M544.707031,665.445312 C543.425781,665.445312 542.339844,666.15625 541.824219,667.304688 L541.730469,667.304688 L541.730469,665.585938 L540.753906,665.585938 L540.753906,676.742188 L541.777344,676.742188 L541.777344,672.398438 L541.871094,672.398438 C542.339844,673.484375 543.402344,674.140625 544.707031,674.140625 C546.832031,674.140625 548.246094,672.40625 548.246094,669.789062 C548.246094,667.171875 546.839844,665.445312 544.707031,665.445312 L544.707031,665.445312 Z M544.480469,673.210938 C542.839844,673.210938 541.746094,671.851562 541.746094,669.789062 C541.746094,667.726562 542.839844,666.367188 544.488281,666.367188 C546.144531,666.367188 547.191406,667.695312 547.191406,669.796875 C547.191406,671.890625 546.144531,673.210938 544.480469,673.210938 L544.480469,673.210938 Z M554.410156,665.445312 C553.128906,665.445312 552.042969,666.15625 551.527344,667.304688 L551.433594,667.304688 L551.433594,665.585938 L550.457031,665.585938 L550.457031,676.742188 L551.480469,676.742188 L551.480469,672.398438 L551.574219,672.398438 C552.042969,673.484375 553.105469,674.140625 554.410156,674.140625 C556.535156,674.140625 557.949219,672.40625 557.949219,669.789062 C557.949219,667.171875 556.542969,665.445312 554.410156,665.445312 L554.410156,665.445312 Z M554.183594,673.210938 C552.542969,673.210938 551.449219,671.851562 551.449219,669.789062 C551.449219,667.726562 552.542969,666.367188 554.191406,666.367188 C555.847656,666.367188 556.894531,667.695312 556.894531,669.796875 C556.894531,671.890625 555.847656,673.210938 554.183594,673.210938 L554.183594,673.210938 Z" id="twitter-acount" sketch:type="MSShapeGroup"></path>
        </g>
    </g>
</svg>