<svg width="90" height="15" viewBox="0 0 90 15" xmlns="http://www.w3.org/2000/svg" xmlns:sketch="http://www.bohemiancoding.com/sketch/ns"><title>twitter-acount</title><desc>Created with Sketch.</desc><path d="M6.418 4.922c1.156 0 1.891.93 1.891 2.398 0 1.492-.742 2.461-1.898 2.461-1.148 0-1.891-.945-1.891-2.422 0-1.469.758-2.438 1.898-2.438zm.25-4.125c-3.789 0-6.43 2.664-6.43 6.484 0 3.953 2.57 6.531 6.508 6.531 1.016 0 1.945-.125 2.602-.344v-.773c-.523.211-1.523.344-2.594.344-3.406 0-5.664-2.281-5.664-5.727 0-3.336 2.32-5.742 5.508-5.742 3.234 0 5.461 2.047 5.461 5.023 0 2.039-.656 3.297-1.727 3.297-.711 0-1.102-.406-1.102-1.156v-4.492h-.906v1.102h-.102c-.297-.766-1.063-1.258-1.938-1.258-1.602 0-2.727 1.336-2.727 3.25 0 1.961 1.109 3.297 2.727 3.297.945 0 1.672-.492 2.023-1.383h.102c.086.859.797 1.438 1.766 1.438 1.695 0 2.742-1.555 2.742-4.078 0-3.43-2.563-5.813-6.25-5.813zm8.188 11.203h8.219v-.969h-6.813v-.094l6.719-9.43v-.781h-7.898v.969h6.516v.094l-6.742 9.438v.773zm13.641-7.648c1.523 0 2.531 1.133 2.555 2.867h-5.242c.094-1.734 1.156-2.867 2.688-2.867zm2.453 5.57c-.359.828-1.219 1.305-2.414 1.305-1.625 0-2.68-1.219-2.734-3.117v-.047h6.32v-.453c0-2.57-1.375-4.164-3.617-4.164-2.289 0-3.758 1.711-3.758 4.352 0 2.656 1.453 4.344 3.766 4.344 1.766 0 3.063-.852 3.477-2.219h-1.039zm6.719-5.57c1.523 0 2.531 1.133 2.555 2.867h-5.242c.094-1.734 1.156-2.867 2.688-2.867zm2.453 5.57c-.359.828-1.219 1.305-2.414 1.305-1.625 0-2.68-1.219-2.734-3.117v-.047h6.32v-.453c0-2.57-1.375-4.164-3.617-4.164-2.289 0-3.758 1.711-3.758 4.352 0 2.656 1.453 4.344 3.766 4.344 1.766 0 3.063-.852 3.477-2.219h-1.039zm6.719-5.57c1.523 0 2.531 1.133 2.555 2.867h-5.242c.094-1.734 1.156-2.867 2.688-2.867zm2.453 5.57c-.359.828-1.219 1.305-2.414 1.305-1.625 0-2.68-1.219-2.734-3.117v-.047h6.32v-.453c0-2.57-1.375-4.164-3.617-4.164-2.289 0-3.758 1.711-3.758 4.352 0 2.656 1.453 4.344 3.766 4.344 1.766 0 3.063-.852 3.477-2.219h-1.039zm3.391 2.078h1.023v-5c0-1.586 1.031-2.633 2.609-2.633 1.461 0 2.195.82 2.195 2.422v5.211h1.023v-5.469c0-1.961-1.078-3.086-2.953-3.086-1.336 0-2.375.617-2.82 1.656h-.102v-1.516h-.977v8.414zm17.047 0h1.125l-4.211-11.273h-1.063l-4.219 11.273h1.133l1.25-3.453h4.734l1.25 3.453zm-3.672-9.875h.102l2 5.5h-4.094l1.992-5.5zm10.648 1.32c-1.281 0-2.367.711-2.883 1.859h-.094v-1.719h-.977v11.156h1.023v-4.344h.094c.469 1.086 1.531 1.742 2.836 1.742 2.125 0 3.539-1.734 3.539-4.352 0-2.617-1.406-4.344-3.539-4.344zm-.227 7.766c-1.641 0-2.734-1.359-2.734-3.422s1.094-3.422 2.742-3.422c1.656 0 2.703 1.328 2.703 3.43 0 2.094-1.047 3.414-2.711 3.414zm9.93-7.766c-1.281 0-2.367.711-2.883 1.859h-.094v-1.719h-.977v11.156h1.023v-4.344h.094c.469 1.086 1.531 1.742 2.836 1.742 2.125 0 3.539-1.734 3.539-4.352 0-2.617-1.406-4.344-3.539-4.344zm-.227 7.766c-1.641 0-2.734-1.359-2.734-3.422s1.094-3.422 2.742-3.422c1.656 0 2.703 1.328 2.703 3.43 0 2.094-1.047 3.414-2.711 3.414z" sketch:type="MSShapeGroup" fill="#000"/></svg>