<svg width="90" height="15" viewBox="0 0 90 15" xmlns="http://www.w3.org/2000/svg"><title>twitter-acount</title><path d="M6.418 4.922c1.156 0 1.89.93 1.89 2.398 0 1.492-.74 2.46-1.897 2.46-1.147 0-1.89-.944-1.89-2.42 0-1.47.758-2.44 1.898-2.44zm.25-4.125C2.878.797.238 3.46.238 7.28c0 3.954 2.57 6.532 6.508 6.532 1.016 0 1.945-.125 2.602-.344v-.773c-.523.21-1.523.344-2.594.344-3.406 0-5.664-2.282-5.664-5.728 0-3.336 2.32-5.742 5.508-5.742 3.234 0 5.46 2.047 5.46 5.023 0 2.04-.655 3.297-1.726 3.297-.71 0-1.102-.406-1.102-1.156V4.242h-.906v1.102h-.102c-.297-.766-1.063-1.258-1.938-1.258-1.602 0-2.727 1.336-2.727 3.25 0 1.96 1.11 3.297 2.727 3.297.945 0 1.672-.492 2.023-1.383h.102c.085.86.796 1.438 1.765 1.438 1.695 0 2.742-1.555 2.742-4.078 0-3.43-2.563-5.813-6.25-5.813zM14.856 12h8.22v-.97H16.26v-.093l6.72-9.43v-.78h-7.9v.968H21.6v.094l-6.743 9.437V12zm13.64-7.648c1.524 0 2.532 1.133 2.556 2.867H25.81c.094-1.735 1.156-2.868 2.688-2.868zm2.454 5.57c-.36.828-1.22 1.305-2.414 1.305-1.625 0-2.68-1.22-2.734-3.117v-.047h6.32V7.61c0-2.57-1.375-4.164-3.617-4.164-2.29 0-3.758 1.71-3.758 4.352 0 2.656 1.453 4.344 3.766 4.344 1.766 0 3.063-.852 3.477-2.22h-1.04zm6.72-5.57c1.522 0 2.53 1.133 2.554 2.867h-5.242c.094-1.735 1.156-2.868 2.688-2.868zm2.452 5.57c-.36.828-1.22 1.305-2.414 1.305-1.625 0-2.68-1.22-2.734-3.117v-.047h6.32V7.61c0-2.57-1.375-4.164-3.617-4.164-2.29 0-3.758 1.71-3.758 4.352 0 2.656 1.452 4.344 3.765 4.344 1.766 0 3.063-.852 3.477-2.22h-1.04zm6.72-5.57c1.522 0 2.53 1.133 2.554 2.867h-5.242c.094-1.735 1.156-2.868 2.688-2.868zm2.452 5.57c-.36.828-1.22 1.305-2.414 1.305-1.625 0-2.68-1.22-2.734-3.117v-.047h6.32V7.61c0-2.57-1.375-4.164-3.617-4.164-2.29 0-3.76 1.71-3.76 4.352 0 2.656 1.454 4.344 3.767 4.344 1.766 0 3.063-.852 3.477-2.22h-1.04zM52.684 12h1.024V7c0-1.586 1.03-2.633 2.61-2.633 1.46 0 2.194.82 2.194 2.422V12h1.023V6.53c0-1.96-1.078-3.085-2.953-3.085-1.336 0-2.375.617-2.82 1.656h-.102V3.586h-.977V12zm17.048 0h1.125L66.647.727h-1.064L61.363 12h1.134l1.25-3.453h4.734L69.73 12zM66.06 2.125h.102l2 5.5h-4.094l1.992-5.5zm10.648 1.32c-1.28 0-2.367.71-2.883 1.86h-.094v-1.72h-.976V14.74h1.023v-4.343h.094c.47 1.086 1.532 1.742 2.837 1.742 2.125 0 3.54-1.735 3.54-4.353 0-2.617-1.407-4.344-3.54-4.344zm-.227 7.766c-1.64 0-2.733-1.358-2.733-3.42s1.094-3.423 2.742-3.423c1.655 0 2.702 1.328 2.702 3.43 0 2.094-1.047 3.414-2.71 3.414zm9.93-7.765c-1.28 0-2.366.71-2.882 1.86h-.094v-1.72h-.977V14.74h1.023v-4.343h.094c.47 1.086 1.53 1.742 2.836 1.742 2.125 0 3.54-1.735 3.54-4.353 0-2.617-1.407-4.344-3.54-4.344zm-.226 7.766c-1.64 0-2.734-1.358-2.734-3.42s1.094-3.423 2.742-3.423c1.656 0 2.703 1.328 2.703 3.43 0 2.094-1.047 3.414-2.71 3.414z"/></svg>