<svg width="189" height="43" viewBox="0 0 189 43" xmlns="http://www.w3.org/2000/svg"><title>ZEEEN</title><path d="M0 42.7h33.062v-1.89H2.928L33.184 1.16V0H1.037v1.89h29.22L0 41.54v1.16zm40.86 0h30.377v-1.89H42.933V22.142h25.315v-1.89H42.933V1.89h28V0H40.858v42.7zm37.564 0h30.378v-1.89H80.498V22.142h25.315v-1.89H80.498V1.89h28V0H78.423v42.7zm37.565 0h30.377v-1.89h-28.304V22.142h25.315v-1.89h-25.315V1.89h28V0h-30.074v42.7zm37.564 0h2.013V3.233L187.043 42.7h1.647V0h-2.013v39.162L155.445 0h-1.89v42.7z"/></svg>