<?xml version="1.0" encoding="UTF-8" standalone="no"?>
<svg width="189px" height="43px" viewBox="0 0 189 43" version="1.1" xmlns="http://www.w3.org/2000/svg" xmlns:xlink="http://www.w3.org/1999/xlink" xmlns:sketch="http://www.bohemiancoding.com/sketch/ns">
    <!-- Generator: Sketch 3.3.2 (12043) - http://www.bohemiancoding.com/sketch -->
    <title>ZEEEN</title>
    <desc>Created with Sketch.</desc>
    <defs></defs>
    <g id="Web" stroke="none" stroke-width="1" fill="none" fill-rule="evenodd" sketch:type="MSPage">
        <g id="Desktop-HD" sketch:type="MSArtboardGroup" transform="translate(-416.000000, -459.000000)" fill="#000000">
            <path d="M416,501.7 L449.062,501.7 L449.062,499.809 L418.928,499.809 L449.184,460.159 L449.184,459 L417.037,459 L417.037,460.891 L446.256,460.891 L416,500.541 L416,501.7 Z M456.859,501.7 L487.237,501.7 L487.237,499.809 L458.933,499.809 L458.933,481.143 L484.248,481.143 L484.248,479.252 L458.933,479.252 L458.933,460.891 L486.932,460.891 L486.932,459 L456.859,459 L456.859,501.7 Z M494.424,501.7 L524.802,501.7 L524.802,499.809 L496.498,499.809 L496.498,481.143 L521.813,481.143 L521.813,479.252 L496.498,479.252 L496.498,460.891 L524.497,460.891 L524.497,459 L494.424,459 L494.424,501.7 Z M531.989,501.7 L562.367,501.7 L562.367,499.809 L534.063,499.809 L534.063,481.143 L559.378,481.143 L559.378,479.252 L534.063,479.252 L534.063,460.891 L562.062,460.891 L562.062,459 L531.989,459 L531.989,501.7 Z M569.554,501.7 L571.567,501.7 L571.567,462.233 L603.043,501.7 L604.69,501.7 L604.69,459 L602.677,459 L602.677,498.162 L571.445,459 L569.554,459 L569.554,501.7 Z" id="ZEEEN" sketch:type="MSShapeGroup"></path>
        </g>
    </g>
</svg>