<svg width="189" height="43" viewBox="0 0 189 43" xmlns="http://www.w3.org/2000/svg" xmlns:sketch="http://www.bohemiancoding.com/sketch/ns"><title>ZEEEN</title><desc>Created with Sketch.</desc><path d="M0 42.7h33.062v-1.891h-30.134l30.256-39.65v-1.159h-32.147v1.891h29.219l-30.256 39.65v1.159zm40.859 0h30.378v-1.891h-28.304v-18.666h25.315v-1.891h-25.315v-18.361h27.999v-1.891h-30.073v42.7zm37.565 0h30.378v-1.891h-28.304v-18.666h25.315v-1.891h-25.315v-18.361h27.999v-1.891h-30.073v42.7zm37.565 0h30.378v-1.891h-28.304v-18.666h25.315v-1.891h-25.315v-18.361h27.999v-1.891h-30.073v42.7zm37.565 0h2.013v-39.467l31.476 39.467h1.647v-42.7h-2.013v39.162l-31.232-39.162h-1.891v42.7z" sketch:type="MSShapeGroup" fill="#000"/></svg>